<svg width="102" height="20" viewBox="0 0 102 20" fill="none" xmlns="http://www.w3.org/2000/svg">
<g clip-path="url(#clip0_2002_5)">
<path d="M6.41254 0.628296H9.05852C9.35527 0.628296 9.61492 0.826126 9.68911 1.11051L14.6843 18.5196C14.808 18.94 14.4865 19.3604 14.0537 19.3604H12.298C12.0013 19.3604 11.7416 19.1626 11.6674 18.8658L10.6288 14.8968C10.5546 14.6125 10.295 14.4023 9.98585 14.4023H5.43575C5.139 14.4023 4.87935 14.6001 4.80516 14.8968L3.76655 18.8658C3.69236 19.1502 3.43271 19.3604 3.13596 19.3604H1.38022C0.947465 19.3604 0.625988 18.94 0.749632 18.5196L5.78195 1.11051C5.8685 0.826126 6.11579 0.640672 6.41254 0.640672M9.02143 12.0407C9.45418 12.0407 9.76329 11.6326 9.65201 11.2123L8.20537 5.71007C8.01991 4.94348 7.8839 4.20162 7.76026 3.33611H7.68607C7.55006 4.21398 7.42642 4.94348 7.24095 5.71007L5.79432 11.2123C5.68304 11.6326 6.00451 12.0407 6.4249 12.0407H9.02143Z" fill="#0F1D22"/>
<path d="M18.2454 1.28349C18.2454 0.924918 18.5422 0.628174 18.9007 0.628174H24.1433C28.3595 0.628174 29.9669 2.84142 29.9669 6.09326C29.9669 8.2694 29.1138 9.97569 27.4322 10.8412C27.1107 11.0019 26.95 11.3729 27.086 11.7067L30.004 18.4329C30.1895 18.8657 29.868 19.3479 29.3981 19.3479H27.4569C27.1973 19.3479 26.95 19.1872 26.8511 18.9399L23.9454 12.0282C23.8465 11.7809 23.5992 11.6201 23.3396 11.6201H21.9548C21.5962 11.6201 21.2994 11.9169 21.2994 12.2755V18.6802C21.2994 19.0388 21.0027 19.3355 20.6441 19.3355H18.876C18.5174 19.3355 18.2207 19.0388 18.2207 18.6802V1.27113L18.2454 1.28349ZM23.8094 9.45637C25.8619 9.45637 26.678 8.17047 26.678 6.08089C26.678 3.9913 25.8866 2.89086 23.7723 2.89086H21.9795C21.6209 2.89086 21.3242 3.18761 21.3242 3.54618V8.80105C21.3242 9.15962 21.6209 9.45637 21.9795 9.45637H23.7971H23.8094Z" fill="#0F1D22"/>
<path d="M34.1212 1.28349C34.1212 0.924918 34.4179 0.628174 34.7765 0.628174H40.019C44.2353 0.628174 45.8426 2.84142 45.8426 6.09326C45.8426 8.2694 44.9895 9.97569 43.3079 10.8412C42.9865 11.0019 42.8257 11.3729 42.9617 11.7067L45.8797 18.4329C46.0652 18.8657 45.7437 19.3479 45.2739 19.3479H43.3327C43.073 19.3479 42.8257 19.1872 42.7268 18.9399L39.8212 12.0282C39.7223 11.7809 39.475 11.6201 39.2153 11.6201H37.8305C37.4719 11.6201 37.1752 11.9169 37.1752 12.2755V18.6802C37.1752 19.0388 36.8784 19.3355 36.5199 19.3355H34.7518C34.3932 19.3355 34.0964 19.0388 34.0964 18.6802V1.27113L34.1212 1.28349ZM39.6852 9.45637C41.7376 9.45637 42.5537 8.17047 42.5537 6.08089C42.5537 3.9913 41.7624 2.89086 39.6481 2.89086H37.8552C37.4967 2.89086 37.1999 3.18761 37.1999 3.54618V8.80105C37.1999 9.15962 37.4967 9.45637 37.8552 9.45637H39.6728H39.6852Z" fill="#0F1D22"/>
<path d="M75.7647 0.628174H77.6318C77.9409 0.628174 78.2005 0.838373 78.2747 1.13512L81.2669 13.7345C81.5266 14.8225 81.6626 15.5768 81.7615 16.3434H81.8728C81.9717 15.5768 82.1077 14.8102 82.3673 13.7345L85.3348 1.13512C85.409 0.838373 85.6687 0.628174 85.9778 0.628174H87.8695C88.3023 0.628174 88.6114 1.03622 88.5001 1.45661L83.7893 18.8657C83.7151 19.1501 83.4554 19.3479 83.1587 19.3479H80.4756C80.1788 19.3479 79.9192 19.1501 79.845 18.8657L75.1342 1.45661C75.0229 1.03622 75.332 0.628174 75.7647 0.628174Z" fill="#0F1D22"/>
<path d="M101.619 17.5551V18.6926C101.619 19.0512 101.322 19.3479 100.963 19.3479H92.0734C91.7148 19.3479 91.4181 19.0512 91.4181 18.6926V1.28349C91.4181 0.924918 91.7148 0.628174 92.0734 0.628174H100.778C101.137 0.628174 101.433 0.924918 101.433 1.28349V2.42103C101.433 2.7796 101.137 3.07634 100.778 3.07634H95.1645C94.8059 3.07634 94.5092 3.37309 94.5092 3.73165V7.84901C94.5092 8.20758 94.8059 8.50432 95.1645 8.50432H100.358C100.716 8.50432 101.013 8.80107 101.013 9.15963V10.2972C101.013 10.6557 100.716 10.9525 100.358 10.9525H95.1645C94.8059 10.9525 94.5092 11.2492 94.5092 11.6078V16.2197C94.5092 16.5783 94.8059 16.875 95.1645 16.875H100.976C101.334 16.875 101.631 17.1718 101.631 17.5303" fill="#0F1D22"/>
<path d="M67.7402 5.17819L66.6892 6.11787C66.5285 6.26625 66.5161 6.51353 66.6645 6.67427L70.1637 10.5691C70.2997 10.7174 70.2997 10.94 70.1637 11.0884L66.6645 14.9832C66.5161 15.1439 66.5285 15.3912 66.6892 15.5396L67.7402 16.4793C67.901 16.6276 68.1482 16.6153 68.2966 16.4545L73.1187 11.0884C73.2548 10.94 73.2548 10.7174 73.1187 10.5691L68.2966 5.20292C68.1482 5.04218 67.901 5.02981 67.7402 5.17819Z" fill="#0F1D22"/>
<path d="M54.4113 5.21528L49.5892 10.5814C49.4532 10.7298 49.4532 10.9524 49.5892 11.1007L54.4113 16.4545C54.5597 16.6153 54.807 16.6276 54.9677 16.4793L56.0187 15.5396C56.1794 15.3912 56.1918 15.1439 56.0434 14.9832L52.5443 11.0884C52.4083 10.94 52.4083 10.7174 52.5443 10.5691L56.0434 6.67427C56.1918 6.51353 56.1794 6.26625 56.0187 6.11787L54.9677 5.17819C54.807 5.02981 54.5597 5.04218 54.4113 5.20292" fill="#0F1D22"/>
<path d="M51.3821 9.60474H70.5222C70.8808 9.60474 71.1775 9.90148 71.1775 10.26V11.3976C71.1775 11.7561 70.8808 12.0529 70.5222 12.0529H51.3821" fill="#0F1D22"/>
</g>
<defs>
<clipPath id="clip0_2002_5">
<rect width="102" height="20" fill="white"/>
</clipPath>
</defs>
</svg>
