<svg width="86" height="24" viewBox="0 0 86 24" fill="none" xmlns="http://www.w3.org/2000/svg">
<path d="M82.242 13.2258C81.7796 13.2258 81.3871 13.172 81.0645 13.0645C80.7527 12.9677 80.4946 12.8763 80.2903 12.7903C80.086 12.6936 79.914 12.6452 79.7742 12.6452C79.5269 12.6452 79.3441 12.8118 79.2258 13.1452H78.6129C78.6344 12.8871 78.6506 12.6075 78.6613 12.3065C78.6721 12.0054 78.6774 11.6613 78.6774 11.2742C78.6882 10.8763 78.6882 10.4247 78.6774 9.91936H79.2903C79.4409 10.8118 79.742 11.4785 80.1936 11.9194C80.6559 12.3602 81.2742 12.5806 82.0484 12.5806C82.6075 12.5806 83.043 12.4624 83.3549 12.2258C83.6667 11.9785 83.8226 11.6344 83.8226 11.1935C83.8226 10.7742 83.6613 10.4355 83.3387 10.1774C83.0269 9.9086 82.4785 9.66667 81.6936 9.45161C80.7151 9.1828 80 8.83333 79.5484 8.40323C79.0968 7.96237 78.871 7.41398 78.871 6.75807C78.871 6.05914 79.1022 5.50538 79.5645 5.09678C80.0269 4.67742 80.6506 4.46774 81.4355 4.46774C81.8549 4.46774 82.2097 4.51613 82.5 4.6129C82.7903 4.70968 83.0323 4.80645 83.2258 4.90323C83.4301 5 83.6129 5.04839 83.7742 5.04839C83.8817 5.04839 83.9731 5.01075 84.0484 4.93548C84.1237 4.86022 84.1882 4.73656 84.242 4.56452H84.871C84.8495 4.79032 84.8333 5.03226 84.8226 5.29032C84.8118 5.53764 84.8011 5.82796 84.7903 6.16129C84.7903 6.48387 84.7957 6.87635 84.8065 7.33871H84.1774C84.0699 6.63979 83.785 6.0914 83.3226 5.69355C82.8602 5.28495 82.3065 5.08065 81.6613 5.08065C81.1882 5.08065 80.8226 5.19355 80.5645 5.41936C80.3172 5.63441 80.1936 5.94086 80.1936 6.33871C80.1936 6.75807 80.3656 7.10753 80.7097 7.3871C81.0538 7.65591 81.6506 7.9086 82.5 8.14516C83.4355 8.41398 84.1075 8.74731 84.5161 9.14516C84.9355 9.54301 85.1452 10.0699 85.1452 10.7258C85.1452 11.5 84.8871 12.1129 84.371 12.5645C83.8549 13.0054 83.1452 13.2258 82.242 13.2258Z" fill="black"/>
<path d="M71.8859 13V12.371C72.5525 12.3602 73.0203 12.2742 73.2891 12.1129C73.5579 11.9516 73.6923 11.6505 73.6923 11.2097V6.74194C73.6923 6.24731 73.5579 5.89247 73.2891 5.67742C73.031 5.46237 72.5633 5.34409 71.8859 5.32258V4.69355C72.1009 4.7043 72.3214 4.71505 72.5472 4.72581C72.7837 4.73656 73.0149 4.74194 73.2407 4.74194C73.6278 4.74194 73.988 4.72581 74.3214 4.69355C74.6547 4.65054 74.9665 4.5914 75.2568 4.51613V11.2097C75.2568 11.6505 75.3859 11.9516 75.6439 12.1129C75.9127 12.2742 76.3859 12.3602 77.0633 12.371V13C76.902 12.9892 76.6762 12.9839 76.3859 12.9839C76.1063 12.9731 75.7998 12.9624 75.4665 12.9516C75.1332 12.9409 74.7998 12.9355 74.4665 12.9355C73.9826 12.9355 73.4934 12.9462 72.9988 12.9677C72.5041 12.9785 72.1332 12.9892 71.8859 13ZM74.4181 2.79032C74.1171 2.79032 73.859 2.68817 73.6439 2.48387C73.4289 2.26882 73.3214 2.00538 73.3214 1.69355C73.3214 1.39247 73.4289 1.13979 73.6439 0.935485C73.859 0.720431 74.1171 0.612904 74.4181 0.612904C74.7192 0.612904 74.9773 0.720431 75.1923 0.935485C75.4074 1.13979 75.5149 1.39247 75.5149 1.69355C75.5149 2.00538 75.4074 2.26882 75.1923 2.48387C74.9773 2.68817 74.7192 2.79032 74.4181 2.79032Z" fill="black"/>
<path d="M65.9579 13.1452L62.9901 6.37097C62.8396 6.01613 62.6299 5.75807 62.3611 5.59678C62.0923 5.42473 61.7482 5.33333 61.3289 5.32258V4.69355C61.6514 4.71506 61.974 4.73118 62.2966 4.74194C62.6192 4.75269 63.0009 4.75807 63.4418 4.75807C63.8719 4.75807 64.2643 4.75269 64.6192 4.74194C64.974 4.73118 65.3235 4.71506 65.6676 4.69355V5.32258C65.1299 5.34409 64.7912 5.45161 64.6514 5.64516C64.5224 5.82796 64.56 6.14516 64.7643 6.59678L66.8289 11.3387L66.5869 11.4194L68.1192 7.58065C68.3127 7.09678 68.4095 6.69355 68.4095 6.37097C68.4095 6.03764 68.3074 5.78495 68.1031 5.61291C67.9095 5.44086 67.6138 5.34409 67.216 5.32258V4.69355C67.517 4.7043 67.7697 4.71506 67.974 4.72581C68.1891 4.72581 68.388 4.73118 68.5708 4.74194C68.7643 4.74194 68.9686 4.74194 69.1837 4.74194C69.5385 4.74194 69.8611 4.73656 70.1514 4.72581C70.4418 4.71506 70.6998 4.7043 70.9256 4.69355V5.32258C70.474 5.35484 70.0977 5.50538 69.7966 5.7742C69.4955 6.04301 69.2213 6.48387 68.974 7.09678L66.5547 13.1452H65.9579Z" fill="black"/>
<path d="M55.5236 13.2258C54.7924 13.2258 54.2117 13.0376 53.7816 12.6613C53.3623 12.2742 53.1526 11.7581 53.1526 11.1129C53.1526 10.6075 53.2709 10.1989 53.5074 9.8871C53.744 9.57527 54.0504 9.32796 54.4268 9.14516C54.8139 8.96237 55.2171 8.81183 55.6365 8.69355C56.0666 8.56452 56.4698 8.45161 56.8461 8.35484C57.2332 8.25807 57.5451 8.13979 57.7816 8C58.0289 7.84946 58.1526 7.65591 58.1526 7.41936V6.64516C58.1526 6.13979 58.002 5.75807 57.701 5.5C57.3999 5.24194 56.9537 5.1129 56.3623 5.1129C55.9322 5.1129 55.5719 5.17204 55.2816 5.29032C54.9913 5.4086 54.8461 5.55376 54.8461 5.72581C54.8461 5.83333 54.8838 5.94624 54.959 6.06452C55.0343 6.17204 55.1042 6.2957 55.1687 6.43548C55.244 6.56452 55.2816 6.70968 55.2816 6.87097C55.2816 7.07527 55.201 7.24194 55.0397 7.37097C54.8891 7.5 54.6902 7.56452 54.4429 7.56452C54.1526 7.56452 53.916 7.47312 53.7332 7.29032C53.5504 7.09678 53.459 6.84409 53.459 6.53226C53.459 6.13441 53.6096 5.77957 53.9107 5.46774C54.2117 5.15591 54.615 4.91398 55.1203 4.74194C55.6365 4.55914 56.2171 4.46774 56.8623 4.46774C57.5289 4.46774 58.0719 4.56989 58.4913 4.77419C58.9107 4.9785 59.2171 5.2957 59.4107 5.72581C59.615 6.15592 59.7171 6.71506 59.7171 7.40323V11.6613C59.7171 11.9194 59.7601 12.1075 59.8461 12.2258C59.9322 12.3441 60.0666 12.4032 60.2494 12.4032C60.4322 12.4032 60.615 12.3602 60.7977 12.2742C60.9805 12.1774 61.158 12.0645 61.33 11.9355L61.6365 12.4516C61.3569 12.6989 61.0612 12.8871 60.7494 13.0161C60.4483 13.1559 60.0988 13.2258 59.701 13.2258C58.6687 13.2258 58.1526 12.7527 58.1526 11.8065C57.8408 12.2688 57.4644 12.6237 57.0236 12.871C56.5827 13.1075 56.0827 13.2258 55.5236 13.2258ZM56.1365 12.2419C56.5343 12.2419 56.9053 12.1452 57.2494 11.9516C57.5934 11.7581 57.8945 11.4785 58.1526 11.1129V8.24194C58.0451 8.42473 57.8569 8.57527 57.5881 8.69355C57.33 8.80108 57.0397 8.91398 56.7171 9.03226C56.3945 9.13979 56.0827 9.26882 55.7816 9.41936C55.4913 9.56989 55.2494 9.76344 55.0558 10C54.8623 10.2366 54.7655 10.543 54.7655 10.9194C54.7655 11.328 54.8838 11.6505 55.1203 11.8871C55.3676 12.1237 55.7064 12.2419 56.1365 12.2419Z" fill="black"/>
<path d="M39.6982 13V12.371C40.2466 12.3495 40.6552 12.3065 40.924 12.2419C41.1929 12.1667 41.3703 12.0376 41.4563 11.8548C41.5423 11.6613 41.5853 11.371 41.5853 10.9839V3.59678C41.5853 3.20968 41.5423 2.92473 41.4563 2.74194C41.3703 2.54839 41.1929 2.41398 40.924 2.33871C40.6552 2.26344 40.2466 2.22043 39.6982 2.20968V1.58065C40.0101 1.5914 40.381 1.60215 40.8111 1.6129C41.2413 1.6129 41.7628 1.6129 42.3757 1.6129C42.6767 1.6129 42.9778 1.6129 43.2789 1.6129C43.5907 1.60215 43.881 1.59678 44.1499 1.59678C44.4187 1.58602 44.6445 1.58065 44.8273 1.58065C46.8595 1.58065 48.3918 2.04301 49.424 2.96774C50.4671 3.89247 50.9886 5.25269 50.9886 7.04839C50.9886 8.30645 50.7413 9.38172 50.2466 10.2742C49.752 11.1559 49.0423 11.8333 48.1176 12.3065C47.1929 12.7688 46.0692 13 44.7466 13C44.4778 13 44.1499 12.9946 43.7628 12.9839C43.3757 12.9624 42.9187 12.9516 42.3918 12.9516C41.8649 12.9516 41.3595 12.957 40.8757 12.9677C40.4025 12.9785 40.0101 12.9892 39.6982 13ZM44.6176 12.4032C46.2197 12.4032 47.3918 11.9946 48.1337 11.1774C48.8757 10.3495 49.2466 9.04839 49.2466 7.27419C49.2466 5.4785 48.881 4.1828 48.1499 3.3871C47.4187 2.5914 46.2413 2.19355 44.6176 2.19355H43.2144V11.0161C43.2144 11.4032 43.2466 11.6989 43.3111 11.9032C43.3864 12.0968 43.5208 12.2312 43.7144 12.3065C43.9187 12.371 44.2197 12.4032 44.6176 12.4032Z" fill="black"/>
<path d="M29.6021 13V12.371C30.0645 12.3602 30.3817 12.2742 30.5537 12.1129C30.7365 11.9409 30.8279 11.6398 30.8279 11.2097V7.43548C30.8279 6.72581 30.6881 6.19893 30.4085 5.85484C30.1397 5.5 29.7365 5.32258 29.1989 5.32258C28.7473 5.32258 28.3279 5.44624 27.9408 5.69355C27.5645 5.93011 27.2365 6.28495 26.9569 6.75807L26.9731 6.04839C27.2419 5.55376 27.6236 5.16667 28.1182 4.8871C28.6128 4.60753 29.1612 4.46774 29.7634 4.46774C30.6021 4.46774 31.2473 4.73118 31.6989 5.25807C32.1612 5.78495 32.3924 6.54301 32.3924 7.53226V11.2097C32.3924 11.6398 32.5214 11.9409 32.7795 12.1129C33.0376 12.2742 33.5107 12.3602 34.1989 12.371V13C34.0376 12.9892 33.8118 12.9839 33.5214 12.9839C33.2419 12.9731 32.9354 12.9624 32.6021 12.9516C32.2688 12.9409 31.9462 12.9355 31.6344 12.9355C31.2257 12.9355 30.8279 12.9462 30.4408 12.9677C30.0645 12.9785 29.7849 12.9892 29.6021 13ZM23.6827 13V12.371C24.3602 12.3602 24.8279 12.2742 25.086 12.1129C25.3548 11.9409 25.4892 11.6398 25.4892 11.2097V6.74194C25.4892 6.22581 25.3548 5.86559 25.086 5.66129C24.8171 5.45699 24.3494 5.34409 23.6827 5.32258V4.69355C23.8978 4.7043 24.1182 4.71505 24.344 4.72581C24.5698 4.73656 24.8064 4.74194 25.0537 4.74194C25.4193 4.74194 25.7688 4.72581 26.1021 4.69355C26.4354 4.65054 26.7526 4.5914 27.0537 4.51613V11.2097C27.0537 11.6398 27.1397 11.9409 27.3118 12.1129C27.4946 12.2742 27.8171 12.3602 28.2795 12.371V13C28.0322 12.9892 27.7257 12.9785 27.3602 12.9677C27.0053 12.9462 26.6344 12.9355 26.2473 12.9355C25.8064 12.9355 25.3494 12.9462 24.8763 12.9677C24.4032 12.9785 24.0053 12.9892 23.6827 13Z" fill="black"/>
<path d="M16.7931 13.2258C16.0619 13.2258 15.4813 13.0376 15.0512 12.6613C14.6318 12.2742 14.4221 11.7581 14.4221 11.1129C14.4221 10.6075 14.5404 10.1989 14.777 9.8871C15.0135 9.57527 15.32 9.32796 15.6963 9.14516C16.0834 8.96237 16.4866 8.81183 16.906 8.69355C17.3361 8.56452 17.7393 8.45161 18.1157 8.35484C18.5028 8.25807 18.8146 8.13979 19.0512 8C19.2985 7.84946 19.4221 7.65591 19.4221 7.41936V6.64516C19.4221 6.13979 19.2716 5.75807 18.9705 5.5C18.6694 5.24194 18.2232 5.1129 17.6318 5.1129C17.2017 5.1129 16.8415 5.17204 16.5512 5.29032C16.2608 5.4086 16.1157 5.55376 16.1157 5.72581C16.1157 5.83333 16.1533 5.94624 16.2286 6.06452C16.3038 6.17204 16.3737 6.2957 16.4382 6.43548C16.5135 6.56452 16.5512 6.70968 16.5512 6.87097C16.5512 7.07527 16.4705 7.24194 16.3092 7.37097C16.1587 7.5 15.9598 7.56452 15.7124 7.56452C15.4221 7.56452 15.1856 7.47312 15.0028 7.29032C14.82 7.09678 14.7286 6.84409 14.7286 6.53226C14.7286 6.13441 14.8791 5.77957 15.1802 5.46774C15.4813 5.15591 15.8845 4.91398 16.3899 4.74194C16.906 4.55914 17.4866 4.46774 18.1318 4.46774C18.7985 4.46774 19.3415 4.56989 19.7608 4.77419C20.1802 4.9785 20.4866 5.2957 20.6802 5.72581C20.8845 6.15592 20.9866 6.71506 20.9866 7.40323V11.6613C20.9866 11.9194 21.0296 12.1075 21.1157 12.2258C21.2017 12.3441 21.3361 12.4032 21.5189 12.4032C21.7017 12.4032 21.8845 12.3602 22.0673 12.2742C22.2501 12.1774 22.4275 12.0645 22.5995 11.9355L22.906 12.4516C22.6264 12.6989 22.3307 12.8871 22.0189 13.0161C21.7178 13.1559 21.3684 13.2258 20.9705 13.2258C19.9382 13.2258 19.4221 12.7527 19.4221 11.8065C19.1103 12.2688 18.7339 12.6237 18.2931 12.871C17.8522 13.1075 17.3522 13.2258 16.7931 13.2258ZM17.406 12.2419C17.8038 12.2419 18.1748 12.1452 18.5189 11.9516C18.863 11.7581 19.1641 11.4785 19.4221 11.1129V8.24194C19.3146 8.42473 19.1264 8.57527 18.8576 8.69355C18.5995 8.80108 18.3092 8.91398 17.9866 9.03226C17.6641 9.13979 17.3522 9.26882 17.0512 9.41936C16.7608 9.56989 16.5189 9.76344 16.3253 10C16.1318 10.2366 16.035 10.543 16.035 10.9194C16.035 11.328 16.1533 11.6505 16.3899 11.8871C16.6372 12.1237 16.9759 12.2419 17.406 12.2419Z" fill="black"/>
<path d="M0.967773 13V12.371C1.51616 12.3495 1.92476 12.3065 2.19358 12.2419C2.4624 12.1667 2.63982 12.0376 2.72584 11.8548C2.81186 11.6613 2.85487 11.371 2.85487 10.9839V3.59678C2.85487 3.20968 2.81186 2.92473 2.72584 2.74194C2.63982 2.54839 2.4624 2.41398 2.19358 2.33871C1.92476 2.26344 1.51616 2.22043 0.967773 2.20968V1.58065C1.2796 1.5914 1.65057 1.60215 2.08068 1.6129C2.51078 1.6129 3.03229 1.6129 3.64519 1.6129C3.94627 1.6129 4.24734 1.6129 4.54842 1.6129C4.86025 1.60215 5.15057 1.59678 5.41939 1.59678C5.6882 1.58602 5.91401 1.58065 6.09681 1.58065C8.12906 1.58065 9.66132 2.04301 10.6936 2.96774C11.7366 3.89247 12.2581 5.25269 12.2581 7.04839C12.2581 8.30645 12.0108 9.38172 11.5162 10.2742C11.0215 11.1559 10.3119 11.8333 9.38713 12.3065C8.4624 12.7688 7.33874 13 6.01616 13C5.74734 13 5.41939 12.9946 5.03229 12.9839C4.64519 12.9624 4.1882 12.9516 3.66132 12.9516C3.13444 12.9516 2.62906 12.957 2.14519 12.9677C1.67207 12.9785 1.2796 12.9892 0.967773 13ZM5.88713 12.4032C7.48928 12.4032 8.66132 11.9946 9.40326 11.1774C10.1452 10.3495 10.5162 9.04839 10.5162 7.27419C10.5162 5.4785 10.1506 4.1828 9.41939 3.3871C8.6882 2.5914 7.51078 2.19355 5.88713 2.19355H4.4839V11.0161C4.4839 11.4032 4.51616 11.6989 4.58068 11.9032C4.65595 12.0968 4.79035 12.2312 4.9839 12.3065C5.1882 12.371 5.48928 12.4032 5.88713 12.4032Z" fill="black"/>
<path d="M56.2697 23.1355C55.8052 23.1355 55.3987 23.0323 55.0504 22.8258C54.7084 22.6129 54.4439 22.3129 54.2568 21.9258C54.0762 21.5323 53.9858 21.0677 53.9858 20.5323C53.9858 19.9903 54.0826 19.5226 54.2762 19.129C54.4697 18.729 54.7439 18.4226 55.0987 18.2097C55.4536 17.9903 55.8729 17.8806 56.3568 17.8806C56.7181 17.8806 57.0375 17.9355 57.3149 18.0452C57.5923 18.1548 57.8116 18.3065 57.9729 18.5C58.1407 18.6871 58.2246 18.9032 58.2246 19.1484C58.2246 19.3677 58.1568 19.5484 58.0213 19.6903C57.8923 19.8258 57.7246 19.8935 57.5181 19.8935C57.3568 19.8935 57.2246 19.8484 57.1213 19.7581C57.0246 19.6677 56.9762 19.5516 56.9762 19.4097C56.9762 19.2871 57.002 19.1806 57.0536 19.0903C57.1116 19 57.1665 18.9161 57.2181 18.8387C57.2762 18.7613 57.3052 18.6839 57.3052 18.6065C57.3052 18.5032 57.2342 18.4194 57.0923 18.3548C56.9504 18.2903 56.7665 18.2581 56.5407 18.2581C56.0375 18.2581 55.6536 18.4452 55.3891 18.8194C55.1246 19.1871 54.9923 19.7226 54.9923 20.4258C54.9923 21.129 55.1213 21.6677 55.3794 22.0419C55.6439 22.4097 56.0246 22.5935 56.5213 22.5935C56.8375 22.5935 57.1149 22.5129 57.3536 22.3516C57.5987 22.1839 57.7987 21.9387 57.9536 21.6161L58.302 21.8097C58.1407 22.229 57.8826 22.5548 57.5278 22.7871C57.1729 23.0194 56.7536 23.1355 56.2697 23.1355Z" fill="black"/>
<path d="M50.026 23V22.6226C50.426 22.6161 50.7066 22.5645 50.8679 22.4677C51.0292 22.371 51.1099 22.1903 51.1099 21.9258V19.2452C51.1099 18.9484 51.0292 18.7355 50.8679 18.6065C50.7131 18.4774 50.4325 18.4065 50.026 18.3935V18.0161C50.155 18.0226 50.2873 18.029 50.4228 18.0355C50.5647 18.0419 50.7034 18.0452 50.8389 18.0452C51.0712 18.0452 51.2873 18.0355 51.4873 18.0161C51.6873 17.9903 51.8744 17.9548 52.0486 17.9097V21.9258C52.0486 22.1903 52.126 22.371 52.2808 22.4677C52.4421 22.5645 52.726 22.6161 53.1325 22.6226V23C53.0357 22.9935 52.9002 22.9903 52.726 22.9903C52.5583 22.9839 52.3744 22.9774 52.1744 22.971C51.9744 22.9645 51.7744 22.9613 51.5744 22.9613C51.2841 22.9613 50.9905 22.9677 50.6937 22.9806C50.397 22.9871 50.1744 22.9935 50.026 23ZM51.5454 16.8742C51.3647 16.8742 51.2099 16.8129 51.0808 16.6903C50.9518 16.5613 50.8873 16.4032 50.8873 16.2161C50.8873 16.0355 50.9518 15.8839 51.0808 15.7613C51.2099 15.6323 51.3647 15.5677 51.5454 15.5677C51.726 15.5677 51.8808 15.6323 52.0099 15.7613C52.1389 15.8839 52.2034 16.0355 52.2034 16.2161C52.2034 16.4032 52.1389 16.5613 52.0099 16.6903C51.8808 16.8129 51.726 16.8742 51.5454 16.8742Z" fill="black"/>
<path d="M47.1928 23.1355C46.9154 23.1355 46.6799 23.1032 46.4863 23.0387C46.2993 22.9806 46.1444 22.9258 46.0218 22.8742C45.8993 22.8161 45.796 22.7871 45.7122 22.7871C45.5638 22.7871 45.4541 22.8871 45.3831 23.0871H45.0154C45.0283 22.9323 45.038 22.7645 45.0444 22.5839C45.0509 22.4032 45.0541 22.1968 45.0541 21.9645C45.0605 21.7258 45.0605 21.4548 45.0541 21.1516H45.4218C45.5122 21.6871 45.6928 22.0871 45.9638 22.3516C46.2412 22.6161 46.6122 22.7484 47.0767 22.7484C47.4122 22.7484 47.6734 22.6774 47.8605 22.5355C48.0476 22.3871 48.1412 22.1806 48.1412 21.9161C48.1412 21.6645 48.0444 21.4613 47.8509 21.3065C47.6638 21.1452 47.3347 21 46.8638 20.871C46.2767 20.7097 45.8476 20.5 45.5767 20.2419C45.3057 19.9774 45.1702 19.6484 45.1702 19.2548C45.1702 18.8355 45.3089 18.5032 45.5863 18.2581C45.8638 18.0065 46.238 17.8806 46.7089 17.8806C46.9605 17.8806 47.1734 17.9097 47.3476 17.9677C47.5218 18.0258 47.667 18.0839 47.7831 18.1419C47.9057 18.2 48.0154 18.229 48.1122 18.229C48.1767 18.229 48.2315 18.2065 48.2767 18.1613C48.3218 18.1161 48.3605 18.0419 48.3928 17.9387H48.7702C48.7573 18.0742 48.7476 18.2194 48.7412 18.3742C48.7347 18.5226 48.7283 18.6968 48.7218 18.8968C48.7218 19.0903 48.7251 19.3258 48.7315 19.6032H48.3541C48.2896 19.1839 48.1186 18.8548 47.8412 18.6161C47.5638 18.371 47.2315 18.2484 46.8444 18.2484C46.5605 18.2484 46.3412 18.3161 46.1863 18.4516C46.038 18.5806 45.9638 18.7645 45.9638 19.0032C45.9638 19.2548 46.067 19.4645 46.2734 19.6323C46.4799 19.7935 46.838 19.9452 47.3476 20.0871C47.9089 20.2484 48.3122 20.4484 48.5573 20.6871C48.8089 20.9258 48.9347 21.2419 48.9347 21.6355C48.9347 22.1 48.7799 22.4677 48.4702 22.7387C48.1605 23.0032 47.7347 23.1355 47.1928 23.1355Z" fill="black"/>
<path d="M40.4923 23.1355C40.002 23.1355 39.6246 22.9774 39.36 22.6613C39.0955 22.3387 38.9633 21.8839 38.9633 21.2968V19.2452C38.9633 18.9355 38.8794 18.7194 38.7117 18.5968C38.5504 18.4677 38.2729 18.4 37.8794 18.3935V18.0161C37.9891 18.0226 38.1117 18.029 38.2471 18.0355C38.3891 18.0419 38.531 18.0452 38.6729 18.0452C38.8923 18.0452 39.102 18.0355 39.302 18.0161C39.502 17.9903 39.6987 17.9548 39.8923 17.9097V21.3935C39.8923 21.8 39.9697 22.1065 40.1246 22.3129C40.2858 22.5194 40.5246 22.6226 40.8407 22.6226C41.0923 22.6226 41.3278 22.5516 41.5471 22.4097C41.7665 22.2613 41.9568 22.0452 42.1181 21.7613L42.1084 22.1871C41.96 22.4839 41.7439 22.7161 41.46 22.8839C41.1762 23.0516 40.8536 23.1355 40.4923 23.1355ZM42.06 23.1065V19.2452C42.06 18.9355 41.9923 18.7194 41.8568 18.5968C41.7213 18.4677 41.4826 18.4 41.1407 18.3935V18.0161C41.2504 18.0226 41.3665 18.029 41.4891 18.0355C41.6181 18.0419 41.7471 18.0452 41.8762 18.0452C42.0826 18.0452 42.2762 18.0355 42.4568 18.0161C42.6439 17.9903 42.8246 17.9548 42.9987 17.9097V21.771C42.9987 22.0806 43.0794 22.3 43.2407 22.429C43.402 22.5516 43.6826 22.6161 44.0826 22.6226V23C43.9665 22.9871 43.8375 22.9806 43.6955 22.9806C43.56 22.9742 43.4246 22.971 43.2891 22.971C43.0697 22.971 42.8568 22.9806 42.6504 23C42.4504 23.0258 42.2536 23.0613 42.06 23.1065Z" fill="black"/>
<path d="M34.9387 23V22.6226C35.2096 22.6161 35.3935 22.5645 35.4903 22.4677C35.5935 22.3645 35.6451 22.1839 35.6451 21.9258V19.6516C35.6451 19.2387 35.5677 18.9258 35.4129 18.7129C35.258 18.5 35.029 18.3935 34.7258 18.3935C34.4548 18.3935 34.2032 18.4742 33.9709 18.6355C33.7387 18.7903 33.5322 19.0387 33.3516 19.3806L33.3032 19.0516C33.4838 18.6452 33.729 18.3484 34.0387 18.1613C34.3548 17.9742 34.6935 17.8806 35.0548 17.8806C35.5451 17.8806 35.9225 18.0419 36.1871 18.3645C36.4516 18.6806 36.5838 19.1323 36.5838 19.7194V21.9258C36.5838 22.1839 36.6613 22.3645 36.8161 22.4677C36.9774 22.5645 37.2613 22.6161 37.6677 22.6226V23C37.5709 22.9935 37.4355 22.9903 37.2613 22.9903C37.0935 22.9839 36.9096 22.9774 36.7096 22.971C36.5096 22.9645 36.3161 22.9613 36.129 22.9613C35.8967 22.9613 35.6677 22.9677 35.4419 22.9806C35.2225 22.9871 35.0548 22.9935 34.9387 23ZM28.358 23V22.6226C28.7645 22.6161 29.0451 22.5645 29.2 22.4677C29.3613 22.3645 29.4419 22.1839 29.4419 21.9258V19.2452C29.4419 18.9355 29.3613 18.7194 29.2 18.5968C29.0387 18.4742 28.758 18.4065 28.358 18.3935V18.0161C28.4871 18.0226 28.6193 18.029 28.7548 18.0355C28.8903 18.0419 29.0322 18.0452 29.1806 18.0452C29.4 18.0452 29.6096 18.0355 29.8096 18.0161C30.0096 17.9903 30.2 17.9548 30.3806 17.9097V21.9258C30.3806 22.1839 30.429 22.3645 30.5258 22.4677C30.629 22.5645 30.8161 22.6161 31.0871 22.6226V23C30.9451 22.9935 30.7677 22.9871 30.5548 22.9806C30.3484 22.9677 30.129 22.9613 29.8967 22.9613C29.6322 22.9613 29.358 22.9677 29.0742 22.9806C28.7903 22.9871 28.5516 22.9935 28.358 23ZM31.8322 23V22.6226C32.1032 22.6161 32.2871 22.5645 32.3838 22.4677C32.4871 22.3645 32.5387 22.1839 32.5387 21.9258V19.6516C32.5387 19.2387 32.4613 18.9258 32.3064 18.7129C32.1516 18.5 31.9225 18.3935 31.6193 18.3935C31.3613 18.3935 31.1225 18.4677 30.9032 18.6161C30.6838 18.7581 30.4903 18.971 30.3225 19.2548L30.3322 18.829C30.4871 18.5323 30.7064 18.3 30.9903 18.1323C31.2806 17.9645 31.6032 17.8806 31.958 17.8806C32.4419 17.8806 32.8161 18.0387 33.0806 18.3548C33.3451 18.671 33.4774 19.1258 33.4774 19.7194V21.9258C33.4774 22.1839 33.5258 22.3645 33.6225 22.4677C33.7258 22.5645 33.9129 22.6161 34.1838 22.6226V23C34.0742 22.9935 33.9064 22.9871 33.6806 22.9806C33.4613 22.9677 33.2387 22.9613 33.0129 22.9613C32.7871 22.9613 32.5613 22.9677 32.3355 22.9806C32.1161 22.9871 31.9484 22.9935 31.8322 23Z" fill="black"/>
</svg>
