<svg xmlns="http://www.w3.org/2000/svg" viewBox="0 0 513 666">
      <path
        fill="#040402"
        d="M363.5 181.5c-1.485 3.89-2.985 7.89-4.5 12-.69 1.238-1.19 1.238-1.5 0 2.702-10.505 3.536-21.172 2.5-32a277.92 277.92 0 0 1-5-18l-1-19a102.726 102.726 0 0 0-15-19c-3.545-6.178-5.211-12.845-5-20l-2-4c-14.564-11.552-30.397-21.052-47.5-28.5a51.46 51.46 0 0 0-11-3c-17.715-2.387-34.715-.054-51 7 28.943 14.943 50.443 37.11 64.5 66.5 12.388 9.721 23.388 20.721 33 33a143.102 143.102 0 0 1 13.5 29c.268 1.599-.066 2.932-1 4-4.14-13.946-11.14-26.279-21-37 0-.667-.333-1-1-1l-3-4c0-.667-.333-1-1-1 0-.667-.333-1-1-1 0-.667-.333-1-1-1 0-.667-.333-1-1-1 0-.667-.333-1-1-1 0-.667-.333-1-1-1 0-.667-.333-1-1-1-.342-.838-1.008-1.172-2-1 0-.667-.333-1-1-1 0-.667-.333-1-1-1 0-.667-.333-1-1-1 0-.667-.333-1-1-1 0-.667-.333-1-1-1l-3-2c0-.667-.333-1-1-1 0-.667-.333-1-1-1l-6-6c-1.135-1.713-2.802-2.38-5-2-2.703-1.463-5.703-2.296-9-2.5a55.337 55.337 0 0 0-6-8 154.339 154.339 0 0 0-21-10.5c-4.938-2.447-10.272-3.447-16-3-6.177-1.65-12.177-1.317-18 1-.667 0-1 .333-1 1h-1a32.508 32.508 0 0 0-7 3c-5.277 2.277-9.277 5.944-12 11-1.951 1.216-3.451 2.882-4.5 5a614.127 614.127 0 0 1-11.5 20.5 2.428 2.428 0 0 0 2 .5c10.999.995 16.666 6.661 17 17-2.427-7.427-7.427-12.093-15-14-2.611.056-4.778 1.056-6.5 3-2.035 3.061-3.201 6.395-3.5 10a158.64 158.64 0 0 1 14-2c3.64-.477 6.64.523 9 3 .477 5.242-.356 10.242-2.5 15a84.587 84.587 0 0 1-17.5 17 5.576 5.576 0 0 0-1 3c-.934 1.272-1.601 2.772-2 4.5.372 3.404 1.706 6.237 4 8.5a4.934 4.934 0 0 0 .5 3c3.922 3.251 7.088 7.084 9.5 11.5-3.306-2.285-6.473-5.119-9.5-8.5a4.934 4.934 0 0 0-.5 3c-.985 4.134-1.318 8.468-1 13-.14 1.624.527 2.79 2 3.5-2.193 2.025-3.193 4.525-3 7.5-1.007.048-1.34-.952-1-3-1.107-7.967-1.107-16.133 0-24.5-2.641-4.459-4.308-9.293-5-14.5-.07-5.173 1.93-9.173 6-12 9.241-4.584 15.241-11.917 18-22-.075-3.574-1.908-5.241-5.5-5a68.466 68.466 0 0 0-12.5 3c-3.385.71-5.719-.456-7-3.5a56.738 56.738 0 0 0 1.5-6.5 80.368 80.368 0 0 0 5.5-10c1.528-.017 2.028-.684 1.5-2a236.65 236.65 0 0 0-14.5-12c-14.842-12.673-26.009-28.006-33.5-46-5.459-21.22 2.707-33.387 24.5-36.5 20.455-3.272 40.455-1.605 60 5 4.9 1.702 9.734 3.535 14.5 5.5 8.619-4.427 17.786-7.26 27.5-8.5 20.227-3.366 39.227-.032 57 10a752.2 752.2 0 0 1 31 20 20.495 20.495 0 0 0 2.5 3.5 304.625 304.625 0 0 0 5 21 63.726 63.726 0 0 0 9 10l7 11a196.843 196.843 0 0 1 2 24c3.874 11.74 5.041 23.74 3.5 36Zm-194-133c7.221.266 14.221 1.766 21 4.5a271.275 271.275 0 0 1 16 8.5l16 12a302.193 302.193 0 0 1-20-11.5c-10.749-5.409-21.749-9.909-33-13.5Zm36 52c-8.028 8.36-16.028 16.693-24 25a82.239 82.239 0 0 1 5-11c4.026-3.695 8.026-7.362 12-11a32.508 32.508 0 0 1 7-3Z"
      />
      <path
        fill="#004202"
        d="M166.5 47.5c.709.904 1.709 1.237 3 1 11.251 3.591 22.251 8.091 33 13.5a302.193 302.193 0 0 0 20 11.5c0 .667.333 1 1 1a138.008 138.008 0 0 1 13 9 664.224 664.224 0 0 1 22 21.5c-42.075-23.42-71.575-12.586-88.5 32.5a703.59 703.59 0 0 1-31-32c-6.466-8.933-11.3-18.6-14.5-29-.166-5.344.001-10.677.5-16 4.439-6.476 10.605-10.31 18.5-11.5a155.549 155.549 0 0 1 23-1.5Z"
      />
      <path
        fill="#262626"
        d="M357.5 193.5c-.929 1.436-2.095 2.769-3.5 4-4.999-4.424-10.832-6.09-17.5-5-.207-2.741-1.207-5.074-3-7a143.102 143.102 0 0 0-13.5-29c-9.612-12.279-20.612-23.279-33-33-14.057-29.39-35.557-51.557-64.5-66.5 16.285-7.054 33.285-9.387 51-7a51.46 51.46 0 0 1 11 3c17.103 7.448 32.936 16.948 47.5 28.5l2 4c-.211 7.155 1.455 13.822 5 20a102.726 102.726 0 0 1 15 19l1 19a277.92 277.92 0 0 0 5 18c1.036 10.828.202 21.495-2.5 32Z"
      />
      <path
        fill="#252525"
        d="M203.5 54.5c29.779 9.877 53.946 27.877 72.5 54 1.934 2.534 3.268 5.201 4 8A1301.662 1301.662 0 0 1 235.5 75a268.272 268.272 0 0 0-32-20.5Z"
      />
      <path
        fill="#232422"
        d="M206.5 61.5a165.574 165.574 0 0 1 35 23.5c-1.689-.134-3.356-.634-5-1.5a138.008 138.008 0 0 0-13-9c-.667 0-1-.333-1-1l-16-12Z"
      />
      <path
        fill="#edc292"
        d="M225.5 98.5c5.207.992 10.54 1.992 16 3a154.339 154.339 0 0 1 21 10.5 55.337 55.337 0 0 1 6 8c3.297.204 6.297 1.037 9 2.5 13.268 16.223 20.768 34.89 22.5 56 1.905 17.258.072 34.091-5.5 50.5l.5 2.5c.9-3.218 2.067-6.218 3.5-9a58.952 58.952 0 0 1-1.5 10c1.789-2.365 3.956-4.032 6.5-5-.237-1.291.096-2.291 1-3a12.93 12.93 0 0 0 .5 5 71.158 71.158 0 0 1 6.5-19 125.165 125.165 0 0 0 7-10.5c10.812-5.635 21.812-5.968 33-1a6.978 6.978 0 0 1 2.5 3.5c1.405 7.217.071 13.884-4 20a289.05 289.05 0 0 1-23.5 26 267.587 267.587 0 0 1-22 6 72.367 72.367 0 0 0-12 .5 29.927 29.927 0 0 0 9 2 161.575 161.575 0 0 0-12.5 17.5 228.344 228.344 0 0 0-12.5 13 126.336 126.336 0 0 1-19 9.5 181.82 181.82 0 0 0-36 7.5c-2.18-1.294-4.18-.961-6 1-11.005.167-22.005 0-33-.5-6.053-1.774-11.22-4.941-15.5-9.5a11.532 11.532 0 0 1-1.5-5.5 62.919 62.919 0 0 0 4-18.5 54.968 54.968 0 0 0-1-12 202.297 202.297 0 0 0 20-1.5c5.022-2.563 10.355-3.896 16-4-12.152 1.926-24.486 2.76-37 2.5-.296-1.903-.963-3.57-2-5 .061-2.092 1.061-3.592 3-4.5 6-.667 12-.667 18 0 17.45 7.348 19.45 5.014 6-7a18.924 18.924 0 0 1-5-3 189.733 189.733 0 0 1-21 1.5c-.193-2.975.807-5.475 3-7.5-1.473-.71-2.14-1.876-2-3.5.985-4.134 1.318-8.468 1-13a4.934 4.934 0 0 1 .5-3c3.027 3.381 6.194 6.215 9.5 8.5-2.412-4.416-5.578-8.249-9.5-11.5a4.934 4.934 0 0 1-.5-3c.35-4.531-.317-8.864-2-13a5.576 5.576 0 0 1 1-3 84.587 84.587 0 0 0 17.5-17c2.144-4.758 2.977-9.758 2.5-15h2c-.334-10.339-6.001-16.005-17-17a24.834 24.834 0 0 1 5-8c.667 0 1-.333 1-1l2-4c.838-.342 1.172-1.008 1-2 7.972-8.307 15.972-16.64 24-25h1c.667 0 1-.333 1-1 5.823-2.317 11.823-2.65 18-1Z"
      />
      <path
        fill="#314b1f"
        d="M225.5 98.5c5.728-.447 11.062.553 16 3a2867.515 2867.515 0 0 1-16-3Z"
      />
      <path
        fill="#003b00"
        d="M198.5 103.5c-3.974 3.638-7.974 7.305-12 11 2.723-5.056 6.723-8.723 12-11Z"
      />
      <path
        fill="#023d03"
        d="M186.5 114.5a82.239 82.239 0 0 0-5 11c-.838.342-1.172 1.008-1 2l-2 4c-.667 0-1 .333-1 1a24.834 24.834 0 0 0-5 8 2.428 2.428 0 0 1-2-.5 614.127 614.127 0 0 0 11.5-20.5c1.049-2.118 2.549-3.784 4.5-5Z"
      />
      <path
        fill="#cda680"
        d="m282.5 124.5 6 6c.667 0 1 .333 1 1v1l-2 1c-1.342-2.666-3.175-4.999-5.5-7-.692-.937-.525-1.603.5-2Z"
      />
      <path
        fill="#003f01"
        d="M153.5 126.5a236.65 236.65 0 0 1 14.5 12c.528 1.316.028 1.983-1.5 2-4.277-4.615-8.61-9.281-13-14Z"
      />
      <path
        fill="#6f3417"
        d="M289.5 132.5h1l3 2c.667 0 1 .333 1 1 .667 0 1 .333 1 1 .667 0 1 .333 1 1 .667 0 1 .333 1 1 .667 0 1 .333 1 1 .342.838 1.008 1.172 2 1 .667 0 1 .333 1 1 .667 0 1 .333 1 1 .667 0 1 .333 1 1 .667 0 1 .333 1 1 .667 0 1 .333 1 1 .667 0 1 .333 1 1 .667 0 1 .333 1 1l3 4c.667 0 1 .333 1 1 9.86 10.721 16.86 23.054 21 37a5.576 5.576 0 0 0 1 3 48.02 48.02 0 0 0-17 6.5 180.678 180.678 0 0 0-5 11.5c-4.223 3.637-6.556 8.304-7 14-.904.709-1.237 1.709-1 3-2.544.968-4.711 2.635-6.5 5a58.952 58.952 0 0 0 1.5-10c6.57-22.656 6.403-45.322-.5-68-2.459-7.585-5.959-14.585-10.5-21l2-1Z"
      />
      <path
        fill="#130b07"
        d="M262.5 160.5c-4.403-4.917-9.403-10.084-15-15.5-10.024-6.407-20.357-7.074-31-2a499.122 499.122 0 0 0-6 6 138.9 138.9 0 0 1 30 3c6.484 2.564 11.818 6.564 16 12l-1 .5c-5.756-6.045-12.756-9.711-21-11a115.224 115.224 0 0 0-24-.5c-3.68-2.444-4.014-5.444-1-9 11.801-10.308 24.468-11.308 38-3 6.772 5.255 11.772 11.755 15 19.5Z"
      />
      <path
        fill="#6b3115"
        d="M262.5 160.5c-.51 4.916-3.51 6.75-9 5.5a146.888 146.888 0 0 0-19-12.5c8.244 1.289 15.244 4.955 21 11l1-.5c-4.182-5.436-9.516-9.436-16-12a138.9 138.9 0 0 0-30-3 499.122 499.122 0 0 1 6-6c10.643-5.074 20.976-4.407 31 2 5.597 5.416 10.597 10.583 15 15.5Z"
      />
      <path
        fill="#6a3217"
        d="M189.5 157.5h-2c-2.36-2.477-5.36-3.477-9-3a158.64 158.64 0 0 0-14 2c.299-3.605 1.465-6.939 3.5-10 1.722-1.944 3.889-2.944 6.5-3 7.573 1.907 12.573 6.573 15 14Z"
      />
      <path
        fill="#1a130e"
        d="M277.5 122.5c2.198-.38 3.865.287 5 2-1.025.397-1.192 1.063-.5 2 2.325 2.001 4.158 4.334 5.5 7 4.541 6.415 8.041 13.415 10.5 21 6.903 22.678 7.07 45.344.5 68-1.433 2.782-2.6 5.782-3.5 9l-.5-2.5c5.572-16.409 7.405-33.242 5.5-50.5-1.732-21.11-9.232-39.777-22.5-56Z"
      />
      <path
        fill="#e7bd90"
        d="M166.5 184.5v-24a68.466 68.466 0 0 1 12.5-3c3.592-.241 5.425 1.426 5.5 5-2.759 10.083-8.759 17.416-18 22Z"
      />
      <path
        fill="#1c1814"
        d="M363.5 181.5c-.059 5.844-1.726 11.178-5 16-3.338.693-3.838 2.36-1.5 5 1.248 6.715.248 13.048-3 19a164.905 164.905 0 0 1-8.5 12l-10 14a14.698 14.698 0 0 0-3.5 3 90.004 90.004 0 0 1-5.5 9c-.324-1.312-.991-2.145-2-2.5.07-.765.403-1.265 1-1.5.31 1.238.81 1.238 1.5 0a40.943 40.943 0 0 1 5-7c.667-.667.667-1.333 0-2a14.698 14.698 0 0 1-3.5 3c-.342-.838-1.008-1.172-2-1a289.05 289.05 0 0 0 23.5-26c4.071-6.116 5.405-12.783 4-20a6.978 6.978 0 0 0-2.5-3.5c-11.188-4.968-22.188-4.635-33 1a125.165 125.165 0 0 1-7 10.5 180.678 180.678 0 0 1 5-11.5 48.02 48.02 0 0 1 17-6.5 5.576 5.576 0 0 1-1-3c.934-1.068 1.268-2.401 1-4 1.793 1.926 2.793 4.259 3 7 6.668-1.09 12.501.576 17.5 5 1.405-1.231 2.571-2.564 3.5-4 .31 1.238.81 1.238 1.5 0 1.515-4.11 3.015-8.11 4.5-12Z"
      />
      <path
        fill="#e2b98c"
        d="M358.5 197.5c.958.453 1.792 1.119 2.5 2 1.933 8.572.267 16.238-5 23a60.67 60.67 0 0 1-10.5 11 164.905 164.905 0 0 0 8.5-12c3.248-5.952 4.248-12.285 3-19-2.338-2.64-1.838-4.307 1.5-5Z"
      />
      <path
        fill="#352c22"
        d="M331.5 200.5c9.599-2.218 14.933 1.449 16 11-.052 3.437-1.219 6.437-3.5 9 1.346-4.144 1.679-8.478 1-13-4.21-6.567-9.71-7.734-16.5-3.5-1.901 2.613-4.235 4.28-7 5 2.938-3.449 6.271-6.282 10-8.5Z"
      />
      <path
        fill="#362c22"
        d="M181.5 204.5c6.614.614 10.28 4.28 11 11l-.5 4c-.293-4.89-2.126-9.057-5.5-12.5a12.93 12.93 0 0 0-5-.5c.282 4.088-.385 4.588-2 1.5a11.803 11.803 0 0 1 2-3.5Z"
      />
      <path
        fill="#45392b"
        d="M191.5 197.5c1.221-.965 2.554-.798 4 .5 7.339 6.792 8.839 14.625 4.5 23.5 1.415-6.999.415-13.665-3-20a54.7 54.7 0 0 0-5.5-4Z"
      />
      <path
        fill="#4a3929"
        d="M311.5 210.5a71.158 71.158 0 0 0-6.5 19 12.93 12.93 0 0 1-.5-5c.444-5.696 2.777-10.363 7-14Z"
      />
      <path
        fill="#322a20"
        d="M207.5 221.5c1.663 1.993 2.83 4.326 3.5 7a50.648 50.648 0 0 1 1 15 755.902 755.902 0 0 0-4.5-22Z"
      />
      <path
        fill="#4c3f2f"
        d="M310.5 229.5a68.064 68.064 0 0 0 10.5-8c.163 1.887-.671 3.387-2.5 4.5a42.302 42.302 0 0 1-8 3.5Z"
      />
      <path
        fill="#554534"
        d="M310.5 229.5a31.447 31.447 0 0 1-4.5 5c.177-2.686 1.677-4.352 4.5-5Z"
      />
      <path
        fill="#e71604"
        d="M335.5 247.5c53.869 21.028 94.035 57.362 120.5 109a198.006 198.006 0 0 1 17.5 53l-11-5.5c1.801-.317 2.134-.984 1-2a264.023 264.023 0 0 0-12-4.5c1.252-1.839 1.252-3.672 0-5.5a549.446 549.446 0 0 1-32-6.5c-6.312-2.487-12.645-4.987-19-7.5a46.94 46.94 0 0 0-11-1.5c-4.752-3.249-10.085-4.916-16-5h-3c1.453-1.325 1.119-2.158-1-2.5a74.688 74.688 0 0 1-24-9 215.656 215.656 0 0 0-15-10.5c-13.097-16.056-17.597-34.389-13.5-55 .625-12.495 3.791-24.161 9.5-35a90.004 90.004 0 0 0 5.5-9 14.698 14.698 0 0 1 3.5-3Z"
      />
      <path
        fill="#bd9b75"
        d="M325.5 255.5c-.039-2.589.961-4.589 3-6a14.698 14.698 0 0 0 3.5-3c.667.667.667 1.333 0 2a40.943 40.943 0 0 0-5 7c-.69 1.238-1.19 1.238-1.5 0Z"
      />
      <path
        fill="#e71604"
        d="M160.5 253.5a59.93 59.93 0 0 0 4 5.5c-1.102 2.401-1.269 4.901-.5 7.5 4.546 5.966 4.546 11.966 0 18a18.453 18.453 0 0 0-.5 6c-4.365 8.407-2.032 14.241 7 17.5a293.59 293.59 0 0 0 38 1.5c1.42 3.831 2.087 7.831 2 12a181.008 181.008 0 0 0-3 23.5 35.558 35.558 0 0 0 2.5 14.5c.499 5.991.666 11.991.5 18-3.149-.289-6.149.211-9 1.5l-20 16a131.352 131.352 0 0 1-22 5c-15.883 5.386-27.549 15.553-35 30.5-18.406 19.208-26.74 42.208-25 69-.294 5.528.539 10.861 2.5 16 1.143 4.953 3.31 9.286 6.5 13a190.303 190.303 0 0 1-10.5 27c-4.71 16.683-6.544 33.683-5.5 51-34.37-37.1-53.87-81.1-58.5-132-4.36-78.301 23.14-142.801 82.5-193.5a299.406 299.406 0 0 1 44-27.5Z"
      />
      <path
        fill="#d9ab80"
        d="M163.5 290.5c-.202 2.489.298 4.823 1.5 7 4.892 5.697 11.059 9.197 18.5 10.5a308.5 308.5 0 0 1 25 1.5 293.59 293.59 0 0 1-38-1.5c-9.032-3.259-11.365-9.093-7-17.5Z"
      />
      <path
        fill="#e3b487"
        d="M330.5 349.5a215.656 215.656 0 0 1 15 10.5 74.688 74.688 0 0 0 24 9c2.119.342 2.453 1.175 1 2.5-2.454-.179-4.621.487-6.5 2-13.01-5.522-24.176-13.522-33.5-24Z"
      />
      <path
        fill="#161311"
        d="M165.5 235.5c-.34 2.048-.007 3.048 1 3a189.733 189.733 0 0 0 21-1.5 18.924 18.924 0 0 0 5 3c13.45 12.014 11.45 14.348-6 7-6-.667-12-.667-18 0-1.939.908-2.939 2.408-3 4.5-1.367 2.29-.7 3.956 2 5 12.514.26 24.848-.574 37-2.5-5.645.104-10.978 1.437-16 4a202.297 202.297 0 0 1-20 1.5c-2.448-.415-3.781.585-4 3a38.624 38.624 0 0 0 5 9 62.919 62.919 0 0 1-4 18.5 11.532 11.532 0 0 0 1.5 5.5c4.28 4.559 9.447 7.726 15.5 9.5 10.995.5 21.995.667 33 .5l6-1a181.82 181.82 0 0 1 36-7.5 126.336 126.336 0 0 0 19-9.5c0 .667.333 1 1 1-4.259 4.141-9.259 7.308-15 9.5a528.104 528.104 0 0 0-44 10.5h-8a56.627 56.627 0 0 1 3 16v2c-1.515 5.08-2.182 10.414-2 16 .001 3.849.335 7.516 1 11 6.212 21.754.712 39.754-16.5 54-1.759 3.108-2.592 6.441-2.5 10-2.677 15.937.656 30.604 10 44a256.572 256.572 0 0 1 17 33 10.134 10.134 0 0 0 1.5 4c22.311-14.812 41.144-33.145 56.5-55l6-7c13.723-16.19 30.056-29.023 49-38.5l28-24c-20.139-7.136-34.972-20.303-44.5-39.5-3.105-7.36-4.605-15.026-4.5-23a109.898 109.898 0 0 1 2-25 142.153 142.153 0 0 1 10-34l-.5-1a58.406 58.406 0 0 1-16.5 4c-1.291.237-2.291-.096-3-1a267.587 267.587 0 0 0 22-6c.992-.172 1.658.162 2 1-2.039 1.411-3.039 3.411-3 6-.597.235-.93.735-1 1.5 1.009.355 1.676 1.188 2 2.5-5.709 10.839-8.875 22.505-9.5 35-4.097 20.611.403 38.944 13.5 55 9.324 10.478 20.49 18.478 33.5 24 1.879-1.513 4.046-2.179 6.5-2h3c3.014.679 5.68 2.179 8 4.5 2.646.497 5.313.664 8 .5a46.94 46.94 0 0 1 11 1.5c6.355 2.513 12.688 5.013 19 7.5 9.927 5.756 20.594 9.756 32 12 4.01 1.393 8.01 2.893 12 4.5 1.134 1.016.801 1.683-1 2l11 5.5c5.523 3.01 10.356 7.01 14.5 12 9.169 12.34 15.669 26.007 19.5 41-.76 3.52-1.76 6.853-3 10-3.232-17.472-10.065-33.472-20.5-48-25.157-26.009-52.657-28.843-82.5-8.5-7.606 10.903-11.606 23.07-12 36.5-1.399 8.794-2.066 17.794-2 27 .001 5.178.334 10.178 1 15a361.578 361.578 0 0 0 5.5 26 12429.712 12429.712 0 0 1 28.5 84c-.79.901-1.79 1.568-3 2a4756.53 4756.53 0 0 1-30.5-90c-9.019-33.484-6.686-66.151 7-98 9.813-10.777 21.979-17.11 36.5-19a31.116 31.116 0 0 0 11-1c-1.189-.929-2.522-1.262-4-1-21.333-4.831-38.166 1.836-50.5 20-14.026 31.894-17.359 64.894-10 99a992.878 992.878 0 0 0 23 67 521.404 521.404 0 0 1 9.5 30l-3 2a1086.215 1086.215 0 0 0-26.5-74c-13.27-37.794-13.937-75.794-2-114 8.127-20.788 23.294-32.621 45.5-35.5a563.18 563.18 0 0 0-29-13 24.935 24.935 0 0 0-7-.5 165.445 165.445 0 0 1-17.5-4c-4.037-.396-7.537.771-10.5 3.5a458.453 458.453 0 0 1-27 24 186.052 186.052 0 0 0-41.5 30.5 606.759 606.759 0 0 1-38.5 44.5 312.828 312.828 0 0 1-34.5 24.5c.707-2.343.374-4.676-1-7a192.25 192.25 0 0 0-19-32 126.131 126.131 0 0 1-11-26c-3.244-19.957 3.089-35.957 19-48 1.411-2.15 2.245-4.484 2.5-7-9.389 3.212-16.555 9.212-21.5 18-7.766 17.089-8.433 34.422-2 52a1240.41 1240.41 0 0 0 28 51 256.918 256.918 0 0 1 6 17 621.773 621.773 0 0 0 55.5-44.5 495.772 495.772 0 0 0 34.5-40.5 430.847 430.847 0 0 1 32.5-32.5c10.68-9.671 22.68-17.337 36-23 1.566-.765 2.899-.598 4 .5a161.606 161.606 0 0 0-38 25.5 582.595 582.595 0 0 0-54.5 60.5c-21.655 21.334-45.322 40.001-71 56-5.66-16.324-13.66-31.324-24-45a151.706 151.706 0 0 1-17-38c-2.183-13.611-.016-26.444 6.5-38.5-2.422-.135-4.755.365-7 1.5-.709-.904-1.709-1.237-3-1a84.731 84.731 0 0 1 12-4.5l6-8c5.498-4.067 11.165-7.567 17-10.5a162.597 162.597 0 0 0-.5-18 35.558 35.558 0 0 1-2.5-14.5 181.008 181.008 0 0 1 3-23.5c.087-4.169-.58-8.169-2-12a308.5 308.5 0 0 0-25-1.5c-7.441-1.303-13.608-4.803-18.5-10.5-1.202-2.177-1.702-4.511-1.5-7a18.453 18.453 0 0 1 .5-6c4.546-6.034 4.546-12.034 0-18-.769-2.599-.602-5.099.5-7.5a59.93 59.93 0 0 1-4-5.5c.054-6.617 1.72-12.617 5-18Z"
      />
      <path
        fill="#d82e18"
        d="M213.5 326.5a585.884 585.884 0 0 0-1 27c-.665-3.484-.999-7.151-1-11-.182-5.586.485-10.92 2-16Z"
      />
      <path
        fill="#d91907"
        d="M218.5 308.5a13652.51 13652.51 0 0 0-5 16 56.627 56.627 0 0 0-3-16h8Z"
      />
      <path
        fill="#b54026"
        d="m221.5 304.5-6 1c1.82-1.961 3.82-2.294 6-1Z"
      />
      <path
        fill="#c12713"
        d="M314.5 286.5a109.898 109.898 0 0 0-2 25c-1.153-6.153-1.32-12.486-.5-19 .566-2.223 1.4-4.223 2.5-6Z"
      />
      <path
        fill="#2a231b"
        d="M304.5 254.5c.709.904 1.709 1.237 3 1-3.433.899-6.266 2.899-8.5 6-4.913 9.989-11.413 18.822-19.5 26.5a2.428 2.428 0 0 1-2 .5c-.667 0-1-.333-1-1a228.344 228.344 0 0 1 12.5-13 161.575 161.575 0 0 1 12.5-17.5 29.927 29.927 0 0 1-9-2 72.367 72.367 0 0 1 12-.5Z"
      />
      <path
        fill="#d52912"
        d="M168.5 259.5a54.968 54.968 0 0 1 1 12 38.624 38.624 0 0 1-5-9c.219-2.415 1.552-3.415 4-3Z"
      />
      <path
        fill="#d22f17"
        d="M165.5 251.5c1.037 1.43 1.704 3.097 2 5-2.7-1.044-3.367-2.71-2-5Z"
      />
      <path
        fill="#eec393"
        d="M314.5 286.5c-1.1 1.777-1.934 3.777-2.5 6-.82 6.514-.653 12.847.5 19-.105 7.974 1.395 15.64 4.5 23 9.528 19.197 24.361 32.364 44.5 39.5l-28 24c-18.944 9.477-35.277 22.31-49 38.5-6.264 3.096-11.098 7.763-14.5 14a329.8 329.8 0 0 1-31.5 29.5c.228.399.562.565 1 .5a192.087 192.087 0 0 0-12 11.5c-1.941 1.903-4.274 2.736-7 2.5a256.572 256.572 0 0 0-17-33 232.229 232.229 0 0 1-7.5-25c-.987-8.942-.487-17.775 1.5-26.5l-.5-1.5a164.456 164.456 0 0 0-3.5 9c-.092-3.559.741-6.892 2.5-10 17.212-14.246 22.712-32.246 16.5-54 .126-9.009.459-18.009 1-27v-2a13652.51 13652.51 0 0 1 5-16 528.104 528.104 0 0 1 44-10.5c5.741-2.192 10.741-5.359 15-9.5a2.428 2.428 0 0 0 2-.5c8.087-7.678 14.587-16.511 19.5-26.5 2.234-3.101 5.067-5.101 8.5-6a58.406 58.406 0 0 0 16.5-4l.5 1a142.153 142.153 0 0 0-10 34Z"
      />
      <path
        fill="#d5af84"
        d="M165.5 244.5c-.203-1.89.463-3.39 2-4.5 12.646-4.546 22.979-1.546 31 9-3.665-.984-7.332-2.317-11-4-7.372-1.062-14.705-1.229-22-.5Z"
      />
      <path
        fill="#d5c8c2"
        d="M373.5 371.5c5.915.084 11.248 1.751 16 5a32.462 32.462 0 0 1-8-.5c-2.32-2.321-4.986-3.821-8-4.5Z"
      />
      <path
        fill="#eae6e0"
        d="M389.5 378.5c-2.121-.175-4.121.159-6 1-1.101-1.098-2.434-1.265-4-.5-13.32 5.663-25.32 13.329-36 23a430.847 430.847 0 0 0-32.5 32.5 495.772 495.772 0 0 1-34.5 40.5 621.773 621.773 0 0 1-55.5 44.5 256.918 256.918 0 0 0-6-17 1240.41 1240.41 0 0 1-28-51c-6.433-17.578-5.766-34.911 2-52 4.945-8.788 12.111-14.788 21.5-18-.255 2.516-1.089 4.85-2.5 7-15.911 12.043-22.244 28.043-19 48a126.131 126.131 0 0 0 11 26 192.25 192.25 0 0 1 19 32c1.374 2.324 1.707 4.657 1 7a312.828 312.828 0 0 0 34.5-24.5 606.759 606.759 0 0 0 38.5-44.5 186.052 186.052 0 0 1 41.5-30.5 458.453 458.453 0 0 0 27-24c2.963-2.729 6.463-3.896 10.5-3.5a165.445 165.445 0 0 0 17.5 4Z"
      />
      <path
        fill="#f0ebe5"
        d="M389.5 378.5c2.357-.163 4.69.003 7 .5a563.18 563.18 0 0 1 29 13c-22.206 2.879-37.373 14.712-45.5 35.5-11.937 38.206-11.27 76.206 2 114a1086.215 1086.215 0 0 1 26.5 74c-29.752 22.535-63.085 37.535-100 45-5.34-6.339-10.673-12.672-16-19a1935.66 1935.66 0 0 1-29.5-41 40.248 40.248 0 0 0-8.5-9 15624.05 15624.05 0 0 1-10-15c.073-1.527-.594-2.527-2-3a128.662 128.662 0 0 0-11.5-21c-1.406-2.909-3.572-4.909-6.5-6-1.54-3.553-4.207-4.72-8-3.5a1037.946 1037.946 0 0 1-70 63 244.438 244.438 0 0 0-23 22.5 117.126 117.126 0 0 1-26-18 1017.643 1017.643 0 0 0 17-88 2836.801 2836.801 0 0 1 2.5-61c2.432-17.042 10.599-30.542 24.5-40.5a245.381 245.381 0 0 1 37-19.5c2.245-1.135 4.578-1.635 7-1.5-6.516 12.056-8.683 24.889-6.5 38.5a151.706 151.706 0 0 0 17 38c10.34 13.676 18.34 28.676 24 45 25.678-15.999 49.345-34.666 71-56a582.595 582.595 0 0 1 54.5-60.5 161.606 161.606 0 0 1 38-25.5c1.879-.841 3.879-1.175 6-1Z"
      />
      <path
        fill="#eadcd5"
        d="M210.5 377.5c-5.835 2.933-11.502 6.433-17 10.5l-6 8a84.731 84.731 0 0 0-12 4.5c-14.093 4.38-27.093 10.88-39 19.5-3.576 4.082-7.576 7.582-12 10.5 7.451-14.947 19.117-25.114 35-30.5a131.352 131.352 0 0 0 22-5l20-16c2.851-1.289 5.851-1.789 9-1.5Z"
      />
      <path
        fill="#e6dbd5"
        d="M419.5 385.5a549.446 549.446 0 0 0 32 6.5c1.252 1.828 1.252 3.661 0 5.5-11.406-2.244-22.073-6.244-32-12Z"
      />
      <path
        fill="#968c88"
        d="M204.5 393.5c1.025.397 1.192 1.063.5 2l-5 6c.671-2.996 2.171-5.663 4.5-8Z"
      />
      <path
        fill="#e9e4de"
        d="m439.5 397.5-7 2c-14.521 1.89-26.687 8.223-36.5 19-13.686 31.849-16.019 64.516-7 98a4756.53 4756.53 0 0 0 30.5 90 30.564 30.564 0 0 1-8 7 521.404 521.404 0 0 0-9.5-30 992.878 992.878 0 0 1-23-67c-7.359-34.106-4.026-67.106 10-99 12.334-18.164 29.167-24.831 50.5-20Z"
      />
      <path
        fill="#5c221d"
        d="M439.5 397.5c1.478-.262 2.811.071 4 1a31.116 31.116 0 0 1-11 1l7-2Z"
      />
      <path
        fill="#130a08"
        d="M175.5 400.5c1.291-.237 2.291.096 3 1a245.381 245.381 0 0 0-37 19.5c-13.901 9.958-22.068 23.458-24.5 40.5a2836.801 2836.801 0 0 0-2.5 61 1243.61 1243.61 0 0 1-15.5 46 440.764 440.764 0 0 0-3.5 41 6.544 6.544 0 0 1-3-3c-1.044-17.317.79-34.317 5.5-51a190.303 190.303 0 0 0 10.5-27 192.593 192.593 0 0 1-9-29c-1.74-26.792 6.594-49.792 25-69 4.424-2.918 8.424-6.418 12-10.5 11.907-8.62 24.907-15.12 39-19.5Z"
      />
      <path
        fill="#eec393"
        d="M504.5 472.5c-13.657 52.679-40.991 96.679-82 132a12429.712 12429.712 0 0 0-28.5-84 361.578 361.578 0 0 1-5.5-26c.167-14.005.5-28.005 1-42 .394-13.43 4.394-25.597 12-36.5 29.843-20.343 57.343-17.509 82.5 8.5 10.435 14.528 17.268 30.528 20.5 48Z"
      />
      <path
        fill="#e03c23"
        d="M203.5 461.5c-9.344-13.396-12.677-28.063-10-44a164.456 164.456 0 0 1 3.5-9l.5 1.5c-1.987 8.725-2.487 17.558-1.5 26.5a232.229 232.229 0 0 0 7.5 25Z"
      />
      <path
        fill="#191918"
        d="M170.5 421.5c1.073.751 1.24 1.751.5 3a239.137 239.137 0 0 0-14 33 797.11 797.11 0 0 0-10 55 57.56 57.56 0 0 1-3 8 677.738 677.738 0 0 1 9-61c3.979-13.618 9.812-26.285 17.5-38Z"
      />
      <path
        fill="#161615"
        d="M354.5 426.5a4.934 4.934 0 0 1 3 .5c-11.154 10.132-18.32 22.632-21.5 37.5a832.867 832.867 0 0 1-13 69 240.293 240.293 0 0 1-21 51 40.413 40.413 0 0 0-3 12 25.238 25.238 0 0 1 0-10 809.825 809.825 0 0 1 15-35 664.165 664.165 0 0 0 18-86c3.397-15.472 10.897-28.472 22.5-39Z"
      />
      <path
        fill="#deb68a"
        d="M116.5 445.5c.543.06.876.393 1 1a60.979 60.979 0 0 0-4.5 14l-1 51a52.46 52.46 0 0 1-3 14c-10.704-28.002-8.204-54.669 7.5-80Z"
      />
      <path
        fill="#e93b24"
        d="m284.5 436.5-6 7a1103.853 1103.853 0 0 0-27 28.5 157.427 157.427 0 0 0-12 8.5c-.438.065-.772-.101-1-.5a329.8 329.8 0 0 0 31.5-29.5c3.402-6.237 8.236-10.904 14.5-14Z"
      />
      <path
        fill="#e2d7d1"
        d="M278.5 443.5c-15.356 21.855-34.189 40.188-56.5 55a10.134 10.134 0 0 1-1.5-4c2.726.236 5.059-.597 7-2.5a192.087 192.087 0 0 1 12-11.5 157.427 157.427 0 0 1 12-8.5 1103.853 1103.853 0 0 1 27-28.5Z"
      />
      <path
        fill="#e3ddd3"
        d="M389.5 452.5c-.5 13.995-.833 27.995-1 42-.666-4.822-.999-9.822-1-15-.066-9.206.601-18.206 2-27Z"
      />
      <path
        fill="#171616"
        d="M340.5 629.5c-.951-1.419-1.284-3.085-1-5a1016.715 1016.715 0 0 0 8.5-51 5877.04 5877.04 0 0 1 5-58 81.073 81.073 0 0 1 7-19 1110.273 1110.273 0 0 0-5 27 453.133 453.133 0 0 1-4 53 552.982 552.982 0 0 1-10.5 53Z"
      />
      <path
        fill="#d49b73"
        d="M99.5 499.5a192.593 192.593 0 0 0 9 29c-3.19-3.714-5.357-8.047-6.5-13-1.961-5.139-2.794-10.472-2.5-16Z"
      />
      <path
        fill="#242322"
        d="M176.5 501.5c1.293-1.145 2.459-.811 3.5 1 .667 3 .667 6 0 9a372.614 372.614 0 0 0-12 28c-.192-3.447.475-6.78 2-10l8-18c.667-3 .667-6 0-9-.383-.556-.883-.889-1.5-1Z"
      />
      <path
        fill="#212020"
        d="M260.5 589.5c-.904-.709-1.237-1.709-1-3a18.991 18.991 0 0 1 1.5-8 473.793 473.793 0 0 0 11-27 617.91 617.91 0 0 0 2.5-29 4.457 4.457 0 0 1 1.5 2c.667 7.667.667 15.333 0 23a188.92 188.92 0 0 1-14 34 34.033 34.033 0 0 0-1.5 8Z"
      />
      <path
        fill="#df1d0a"
        d="M114.5 522.5a1017.643 1017.643 0 0 1-17 88c-.992.172-1.658-.162-2-1a440.764 440.764 0 0 1 3.5-41 1243.61 1243.61 0 0 0 15.5-46Z"
      />
      <path
        fill="#140a08"
        d="M224.5 546.5a563.582 563.582 0 0 0 18 27c-.073 1.527.594 2.527 2 3 3.326 4.995 6.659 9.995 10 15a1096.533 1096.533 0 0 0 23.5 34 336.562 336.562 0 0 0 14.5 16c5.327 6.328 10.66 12.661 16 19h-2a294.554 294.554 0 0 1-31.5-33 6440.86 6440.86 0 0 1-56.5-81 2132.872 2132.872 0 0 1-57 53c-2.589.919-4.589 2.586-6 5-2.927 1.257-5.261 3.257-7 6a311.162 311.162 0 0 0-22 20c-1.527.073-2.527-.594-3-2a244.438 244.438 0 0 1 23-22.5 1037.946 1037.946 0 0 0 70-63c3.793-1.22 6.46-.053 8 3.5Z"
      />
      <path
        fill="#a1160a"
        d="M306.5 660.5c-6.056 1.953-12.389 2.953-19 3h-23v-5c.543-.06.876-.393 1-1l-7.5-15c-3.967-1.886-8.134-2.386-12.5-1.5a117.686 117.686 0 0 0-8 10.5c-.958.453-1.792 1.119-2.5 2a50.464 50.464 0 0 0-.5 10h-10a89.306 89.306 0 0 1-17-2 374.853 374.853 0 0 1 10-45c2.191.791 4.191.791 6 0 1.798-2.531 2.965-5.531 3.5-9 1.098-3.781.265-6.947-2.5-9.5-7.993-.5-15.993-.666-24-.5a169.091 169.091 0 0 1-3 16l1 4a15.418 15.418 0 0 0 7 1 518.076 518.076 0 0 1-7 25 150.937 150.937 0 0 0-5 15 95.102 95.102 0 0 1-18-6 73.314 73.314 0 0 0 1-12 151.175 151.175 0 0 0-5.5-16 593.27 593.27 0 0 0-16.5-8c-1.624-1.637-2.624-1.303-3 1a305.188 305.188 0 0 0-6 23c-6.815-2.573-13.149-5.906-19-10a311.162 311.162 0 0 1 22-20c2.927-1.257 5.261-3.257 7-6 2.589-.919 4.589-2.586 6-5a2132.872 2132.872 0 0 0 57-53 6440.86 6440.86 0 0 0 56.5 81 294.554 294.554 0 0 0 31.5 33Z"
      />
      <path
        fill="#d82311"
        d="M224.5 546.5c2.928 1.091 5.094 3.091 6.5 6a128.662 128.662 0 0 1 11.5 21 563.582 563.582 0 0 1-18-27Z"
      />
      <path
        fill="#c43d2d"
        d="M242.5 573.5c1.406.473 2.073 1.473 2 3-1.406-.473-2.073-1.473-2-3Z"
      />
      <path
        fill="#797673"
        d="M259.5 586.5c-.237 1.291.096 2.291 1 3 .188 1.603-.312 2.937-1.5 4-.796-2.539-.629-4.872.5-7Z"
      />
      <path
        fill="#231c1b"
        d="M223.5 616.5v-3a56.464 56.464 0 0 0 2-12 97.547 97.547 0 0 0-23 0 9.108 9.108 0 0 0-1 5c-1.847 3.107-2.18 6.44-1 10a11.988 11.988 0 0 0 6 1c.597.235.93.735 1 1.5a1305.148 1305.148 0 0 1-11 39.5h-1a188.215 188.215 0 0 0 3-15 518.076 518.076 0 0 0 7-25 15.418 15.418 0 0 1-7-1l-1-4a169.091 169.091 0 0 0 3-16c8.007-.166 16.007 0 24 .5 2.765 2.553 3.598 5.719 2.5 9.5-.535 3.469-1.702 6.469-3.5 9Z"
      />
      <path
        fill="#f4e7e0"
        d="M223.5 613.5c-2.198-.38-3.865.287-5 2-1.25.077-2.083.744-2.5 2a294.033 294.033 0 0 1-6.5 22 223.93 223.93 0 0 0-6 21c-2.567-.221-4.901-.888-7-2a1305.148 1305.148 0 0 0 11-39.5c-.07-.765-.403-1.265-1-1.5-1.052-1.756-2.719-2.423-5-2v-9a9.108 9.108 0 0 1 1-5 97.547 97.547 0 0 1 23 0 56.464 56.464 0 0 1-2 12Z"
      />
      <path
        fill="#ac665b"
        d="M161.5 599.5c-1.411 2.414-3.411 4.081-6 5 1.411-2.414 3.411-4.081 6-5Z"
      />
      <path
        fill="#b27066"
        d="M155.5 604.5c-1.739 2.743-4.073 4.743-7 6 1.739-2.743 4.073-4.743 7-6Z"
      />
      <path
        fill="#992a1e"
        d="M201.5 606.5v9c2.281-.423 3.948.244 5 2a11.988 11.988 0 0 1-6-1c-1.18-3.56-.847-6.893 1-10Z"
      />
      <path
        fill="#a8291a"
        d="M223.5 613.5v3a20.69 20.69 0 0 0-5-1c1.135-1.713 2.802-2.38 5-2Z"
      />
      <path
        fill="#f3e8e1"
        d="M154.5 617.5c4.247 4.233 9.081 7.899 14.5 11l5 13a27.356 27.356 0 0 1-.5 11l-8-3a18.453 18.453 0 0 0-.5-6c-.422-1.926-1.589-2.926-3.5-3h-3c-1.431 1.28-2.098 2.947-2 5-3.412-.575-6.412-1.908-9-4a488.182 488.182 0 0 0 5-21c.14-1.53.807-2.53 2-3Z"
      />
      <path
        fill="#2c211f"
        d="M154.5 616.5v1c-1.193.47-1.86 1.47-2 3a488.182 488.182 0 0 1-5 21c-.992.172-1.658-.162-2-1a305.188 305.188 0 0 1 6-23c.376-2.303 1.376-2.637 3-1Z"
      />
      <path
        fill="#e2c9c2"
        d="M154.5 617.5v-1a593.27 593.27 0 0 1 16.5 8 151.175 151.175 0 0 1 5.5 16c-2.821-4.267-4.988-8.933-6.5-14a355.417 355.417 0 0 0-15.5-9Z"
      />
      <path
        fill="#912418"
        d="M254.5 591.5a40.248 40.248 0 0 1 8.5 9 1935.66 1935.66 0 0 0 29.5 41 336.562 336.562 0 0 1-14.5-16 1096.533 1096.533 0 0 1-23.5-34Z"
      />
      <path
        fill="#6c6a67"
        d="M339.5 624.5c-.284 1.915.049 3.581 1 5 .219 1.175-.114 2.175-1 3-1.3-2.809-1.3-5.476 0-8Z"
      />
      <path
        fill="#2a2726"
        d="M154.5 617.5a355.417 355.417 0 0 1 15.5 9c1.512 5.067 3.679 9.733 6.5 14a73.314 73.314 0 0 1-1 12h-2a27.356 27.356 0 0 0 .5-11l-5-13c-5.419-3.101-10.253-6.767-14.5-11Z"
      />
      <path
        fill="#2e1f1d"
        d="M161.5 640.5c1.911.074 3.078 1.074 3.5 3 .495 1.973.662 3.973.5 6l-2-1c.393-3.013-.274-5.68-2-8Z"
      />
      <path
        fill="#180a08"
        d="M218.5 615.5a20.69 20.69 0 0 1 5 1c-1.809.791-3.809.791-6 0a374.853 374.853 0 0 0-10 45c-.992.172-1.658-.162-2-1a161.738 161.738 0 0 0 4-21 294.033 294.033 0 0 0 6.5-22c.417-1.256 1.25-1.923 2.5-2Z"
      />
      <path
        fill="#1d1311"
        d="M158.5 640.5a19.22 19.22 0 0 1-1 6c-.667 0-1-.333-1-1-.098-2.053.569-3.72 2-5Z"
      />
      <path
        fill="#9b1409"
        d="M158.5 640.5h3c1.726 2.32 2.393 4.987 2 8l-6-2a19.22 19.22 0 0 0 1-6Z"
      />
      <path
        fill="#1e1312"
        d="M264.5 658.5a141.339 141.339 0 0 0-7.5-14c-3.33-1.638-6.83-2.138-10.5-1.5a117.686 117.686 0 0 0-8 10.5c-.838-.342-1.172-1.008-1-2a117.686 117.686 0 0 1 8-10.5c4.366-.886 8.533-.386 12.5 1.5l7.5 15c-.124.607-.457.94-1 1Z"
      />
      <path
        fill="#f6e8e1"
        d="M264.5 658.5v5h-10v-5c-2.852-.758-5.519-.758-8 0-.934 1.068-1.268 2.401-1 4h-10c.133-3.387 1.133-6.387 3-9a117.686 117.686 0 0 1 8-10.5c3.67-.638 7.17-.138 10.5 1.5a141.339 141.339 0 0 1 7.5 14Z"
      />
      <path
        fill="#99756f"
        d="M237.5 651.5c-.172.992.162 1.658 1 2-1.867 2.613-2.867 5.613-3 9h10v1h-11c-.165-3.35.002-6.683.5-10 .708-.881 1.542-1.547 2.5-2Z"
      />
      <path
        fill="#9d271a"
        d="M209.5 639.5a161.738 161.738 0 0 1-4 21h-2a223.93 223.93 0 0 1 6-21Z"
      />
      <path
        fill="#dbc0b9"
        d="M198.5 643.5a188.215 188.215 0 0 1-3 15h-2a150.937 150.937 0 0 1 5-15Z"
      />
      <path
        fill="#3e2623"
        d="M246.5 658.5c2.481-.758 5.148-.758 8 0v5h-1v-4a51.569 51.569 0 0 1-7-1Z"
      />
      <path
        fill="#982012"
        d="M246.5 658.5c2.306.493 4.639.826 7 1v4h-8v-1c-.268-1.599.066-2.932 1-4Z"
      />
      <path
        fill="#e71604"
        d="M224.5 663.5h63l-9 2h-45l-9-2Z"
      />
    </svg>