<svg width="687" height="416" viewBox="0 0 687 416" fill="none" xmlns="http://www.w3.org/2000/svg">
<g clip-path="url(#clip0_2002_14)">
<path d="M223.5 347.1C222.4 347.1 221.7 347.3 221.2 347.7C220.8 348.1 220.4 348.9 220.1 350L219.7 351.6H226.2L223.6 366.4H217.6L211.8 399.1H189.2L195 366.4H190.3L192.9 351.6H197.6L198.6 346.3C199.6 341.3 201.4 337.7 204.2 335.7C207 333.6 210.6 332.6 215.1 332.6C220.112 332.576 225.078 333.562 229.7 335.5L227.4 348.3C226.232 347.557 224.884 347.142 223.5 347.1ZM222.6 399.1L232.9 340.4L257.9 332.6L246.1 399.1H222.6ZM279.5 415.9H258.2L266.8 400.7L258.4 351.7H281.1L281.3 357.1C281.443 365.005 281.243 372.912 280.7 380.8L282 375.8L283.8 370L286 363.7L288.4 357.2L290.4 351.8H312.9L279.5 415.9Z" fill="#0A0A0A"/>
<path d="M356.3 207.1C347.9 200.1 332.4 198.3 329.8 199.6L336 191.4C336 191.4 338.6 189.7 346.5 189L352 188.8H354.4L355.6 188.9C357.5 189 359.6 189.2 361.9 189.6C369.1 177.7 371.6 172.7 372.7 170.9C381.4 156.1 394.1 136.1 412.2 124.8C420.8 119.4 434 112.1 444 107.5C444 107.5 446.5 106.4 445.4 104.3C444.4 102.8 442.2 103.8 442.2 103.8C442.2 103.8 437.1 105.6 425.1 110.2C402.1 118.9 384.2 109.4 384.2 109.4C373.8 105.1 366.4 105.7 366.4 105.7C340.3 106.4 324.2 139.2 324.2 139.2C304.4 167.1 257.9 167.4 257.9 167.4C253.1 167.4 248.1 167 243.2 166.4C138 153 0 0 0 0C49.9 93.2 100.5 123.4 100.5 123.4C85.4 127 62 107 62 107C75.4 138.2 127 160.8 127 160.8C112.3 165.4 83.1 151.9 83.1 151.9C106.015 168.757 132.106 180.799 159.8 187.3C140.7 184.7 125.3 192.6 125.3 192.6C145.1 196.9 162.5 209.3 162.5 209.3C182.507 224.979 203.742 239.025 226 251.3C237.523 257.755 249.448 263.467 261.7 268.4C281.1 275.4 307.6 266.6 319.9 256.6C335.369 242.834 347.771 225.969 356.3 207.1Z" fill="#0A0A0A"/>
<path d="M344.2 347.1C343.1 347.1 342.4 347.3 341.9 347.7C341.5 348.1 341.1 348.9 340.8 350L340.4 351.6H346.9L344.3 366.4H338.3L332.5 399.1H310L315.8 366.4H311.1L313.7 351.6H318.4L319.4 346.3C320.4 341.3 322.2 337.7 325 335.7C327.8 333.6 331.4 332.6 335.9 332.6C340.912 332.576 345.878 333.562 350.5 335.5L348.2 348.3C346.991 347.566 345.614 347.153 344.2 347.1ZM384.1 372C383.1 371.3 382.1 370.7 380.9 370.2C379.759 369.727 378.535 369.489 377.3 369.5C375.8 369.5 374.4 370 373.2 371C372 372 371.1 373.7 370.7 376.2L366.7 399.1H343.2L351.5 351.6H375L374.5 354.8C375.7 353.9 377.2 353 379.1 352C380.9 351.1 383.2 350.6 386 350.6C388.02 350.603 390.033 350.838 392 351.3L384.1 372ZM408.1 380.8C408.338 381.795 408.744 382.742 409.3 383.6C409.8 384.3 410.5 384.9 411.3 385.3C412.1 385.7 413.2 386 414.5 386.2L419 386.4C423.221 386.394 427.412 385.684 431.4 384.3L434.4 397.1L429.9 398.5C420.756 400.289 411.356 400.323 402.2 398.6C398.9 397.6 396.2 396.1 394.1 394.3C391.998 392.455 390.383 390.119 389.4 387.5C387.253 380.731 387.465 373.434 390 366.8C391.297 363.462 393.314 360.45 395.906 357.978C398.499 355.507 401.603 353.637 405 352.5C411.426 350.182 418.41 349.903 425 351.7C427.567 352.308 429.955 353.512 431.97 355.215C433.986 356.917 435.572 359.07 436.6 361.5C437.791 364.488 438.369 367.684 438.3 370.9C438.322 374.166 437.953 377.422 437.2 380.6H408.1V380.8ZM419.7 369.8C419.7 367.9 419.4 366.4 418.7 365.5C418 364.6 416.9 364.1 415.3 364.1C413.5 364.1 412.2 364.6 411.3 365.7C410.32 366.89 409.635 368.295 409.3 369.8H419.7ZM461.3 380.8C461.538 381.795 461.944 382.742 462.5 383.6C463 384.3 463.7 384.9 464.5 385.3C465.3 385.7 466.4 386 467.7 386.2L472.2 386.4C476.421 386.394 480.612 385.684 484.6 384.3L487.6 397.1L483.1 398.5C473.956 400.289 464.556 400.323 455.4 398.6C452.1 397.6 449.4 396.1 447.3 394.3C445.198 392.455 443.583 390.119 442.6 387.5C440.453 380.731 440.665 373.434 443.2 366.8C444.497 363.462 446.514 360.45 449.106 357.978C451.699 355.507 454.803 353.637 458.2 352.5C464.626 350.182 471.61 349.903 478.2 351.7C480.767 352.308 483.155 353.512 485.17 355.215C487.186 356.917 488.772 359.07 489.8 361.5C490.991 364.488 491.569 367.684 491.5 370.9C491.522 374.166 491.153 377.422 490.4 380.6H461.3V380.8ZM472.9 369.8C472.9 367.9 472.6 366.4 471.9 365.5C471.2 364.6 470.1 364.1 468.5 364.1C466.7 364.1 465.4 364.6 464.5 365.7C463.52 366.89 462.835 368.295 462.5 369.8H472.9Z" fill="#DC2626"/>
<path d="M585.6 123.4C585.6 123.4 636.2 93.2 686.1 0C686.1 0 565.5 146.3 466.6 161.9C455.5 163.7 444.2 165.9 443.7 166.1C431.19 172.436 420.257 181.49 411.7 192.6L403.3 203.1C411.5 209.7 432.3 213.8 448.7 210.8C452.6 210.1 456.6 209.1 460.8 207.8L462.2 207.4C458.611 211.822 454.592 215.875 450.2 219.5C429.4 228.7 401.1 223.7 393.1 220.9C393.1 220.9 380 236.6 371.2 244.2L371.3 244C358.8 254.4 335.7 279.5 287.6 279.1C287.6 279.1 313.2 286.2 348.3 283.7C389.59 279.126 429.67 266.919 466.5 247.7L470.9 245.2C489.129 234.423 506.634 222.465 523.3 209.4C523.3 209.4 540.7 196.9 560.5 192.7C560.5 192.7 545.1 184.8 526 187.4C526 187.4 568.5 178.6 602.7 152C602.7 152 573.6 165.4 558.8 160.9C558.8 160.9 610.4 138.3 623.8 107.1C624.1 107 600.6 127 585.6 123.4Z" fill="#DC2626"/>
</g>
<defs>
<clipPath id="clip0_2002_14">
<rect width="686.1" height="415.9" fill="white"/>
</clipPath>
</defs>
</svg>
