<?xml version="1.0" encoding="UTF-8"?>
<!DOCTYPE svg PUBLIC "-//W3C//DTD SVG 1.1//EN" "http://www.w3.org/Graphics/SVG/1.1/DTD/svg11.dtd">
<svg xmlns="http://www.w3.org/2000/svg" version="1.1" width="580px" height="160px" style="shape-rendering:geometricPrecision; text-rendering:geometricPrecision; image-rendering:optimizeQuality; fill-rule:evenodd; clip-rule:evenodd" xmlns:xlink="http://www.w3.org/1999/xlink">
<g><path style="opacity:0.995" fill="#2fad87" d="M 40.5,-0.5 C 66.5,-0.5 92.5,-0.5 118.5,-0.5C 128.51,0.337204 137.843,3.50387 146.5,9C 154.944,17.7334 159.111,28.2334 159,40.5C 159.667,66.5 159.667,92.5 159,118.5C 157.981,144.685 144.481,158.351 118.5,159.5C 92.5,159.5 66.5,159.5 40.5,159.5C 30.4899,158.663 21.1566,155.496 12.5,150C 4.15426,141.076 -0.179071,130.576 -0.5,118.5C -0.5,92.5 -0.5,66.5 -0.5,40.5C 0.337204,30.4899 3.50387,21.1566 9,12.5C 17.9245,4.15426 28.4245,-0.179071 40.5,-0.5 Z"/></g>
<g><path style="opacity:0.974" fill="#1c1c1c" d="M 489.5,23.5 C 497.167,23.5 504.833,23.5 512.5,23.5C 512.5,29.5 512.5,35.5 512.5,41.5C 504.833,41.5 497.167,41.5 489.5,41.5C 489.5,35.5 489.5,29.5 489.5,23.5 Z"/></g>
<g><path style="opacity:0.961" fill="#1c1c1c" d="M 579.5,50.5 C 579.5,56.1667 579.5,61.8333 579.5,67.5C 572.833,67.5 566.167,67.5 559.5,67.5C 559.333,81.1707 559.5,94.8374 560,108.5C 560.5,110.333 561.667,111.5 563.5,112C 568.823,112.499 574.156,112.666 579.5,112.5C 579.5,118.5 579.5,124.5 579.5,130.5C 569.783,130.824 560.116,130.324 550.5,129C 542.895,127.062 538.395,122.228 537,114.5C 536.5,98.8369 536.333,83.1702 536.5,67.5C 532.167,67.5 527.833,67.5 523.5,67.5C 523.5,61.8333 523.5,56.1667 523.5,50.5C 527.833,50.5 532.167,50.5 536.5,50.5C 536.5,44.1667 536.5,37.8333 536.5,31.5C 543.841,31.3337 551.174,31.5003 558.5,32C 559.476,38.0758 559.81,44.2424 559.5,50.5C 566.167,50.5 572.833,50.5 579.5,50.5 Z"/></g>
<g><path style="opacity:1" fill="#fafdfd" d="M 73.5,58.5 C 73.5,60.1667 73.5,61.8333 73.5,63.5C 70.1789,68.129 66.8456,72.7957 63.5,77.5C 57.2167,87.8948 50.5501,98.0614 43.5,108C 35.7651,107.651 29.2651,104.484 24,98.5C 23.3653,96.3646 23.6986,94.3646 25,92.5C 34.6244,78.0855 44.1244,63.5855 53.5,49C 55.3646,47.6986 57.3646,47.3653 59.5,48C 64.9835,50.6818 69.6502,54.1818 73.5,58.5 Z"/></g>
<g><path style="opacity:0.967" fill="#1c1c1c" d="M 244.5,48.5 C 257.299,47.1444 266.465,52.1444 272,63.5C 278.554,50.3019 289.054,45.8019 303.5,50C 312.927,53.0994 318.427,59.5994 320,69.5C 320.5,89.8306 320.667,110.164 320.5,130.5C 312.833,130.5 305.167,130.5 297.5,130.5C 297.667,112.497 297.5,94.4969 297,76.5C 294.501,67.5787 289.001,65.0787 280.5,69C 277.533,71.1005 275.7,73.9338 275,77.5C 274.5,95.1635 274.333,112.83 274.5,130.5C 267.5,130.5 260.5,130.5 253.5,130.5C 253.667,113.163 253.5,95.8301 253,78.5C 251.13,68.1471 245.297,64.9804 235.5,69C 233.623,71.2513 232.123,73.7513 231,76.5C 229.617,94.4658 229.117,112.466 229.5,130.5C 222.167,130.5 214.833,130.5 207.5,130.5C 207.5,103.833 207.5,77.1667 207.5,50.5C 214.167,50.5 220.833,50.5 227.5,50.5C 227.457,53.9099 227.957,57.2432 229,60.5C 232.637,54.3448 237.804,50.3448 244.5,48.5 Z"/></g>
<g><path style="opacity:0.965" fill="#1c1c1c" d="M 365.5,48.5 C 377.39,47.3671 388.39,49.8671 398.5,56C 404.142,61.2431 407.309,67.7431 408,75.5C 408.333,87.8333 408.667,100.167 409,112.5C 410.584,113.861 412.418,114.528 414.5,114.5C 414.5,119.833 414.5,125.167 414.5,130.5C 408.368,131.972 402.368,131.472 396.5,129C 392.51,127.01 390.01,123.843 389,119.5C 382.443,128.696 373.443,132.696 362,131.5C 337.637,130.828 329.637,119.162 338,96.5C 341.755,91.7047 346.588,88.538 352.5,87C 363.446,84.5108 374.446,82.3442 385.5,80.5C 385.773,71.4428 381.439,66.4428 372.5,65.5C 365.359,65.4011 360.693,68.7345 358.5,75.5C 350.82,76.732 343.153,76.732 335.5,75.5C 339.204,59.4611 349.204,50.4611 365.5,48.5 Z M 380.5,95.5 C 382.167,95.5 383.833,95.5 385.5,95.5C 385.164,111.33 377.164,117.83 361.5,115C 355.795,109.186 356.462,104.186 363.5,100C 369.338,98.6733 375.005,97.1733 380.5,95.5 Z"/></g>
<g><path style="opacity:0.949" fill="#1c1c1c" d="M 428.5,50.5 C 435.833,50.5 443.167,50.5 450.5,50.5C 450.334,54.5138 450.501,58.5138 451,62.5C 452.686,57.6058 455.853,54.1058 460.5,52C 465.736,50.661 471.07,50.161 476.5,50.5C 476.5,56.8333 476.5,63.1667 476.5,69.5C 469.144,68.7676 462.144,69.9343 455.5,73C 453.959,74.5793 452.792,76.4127 452,78.5C 451.5,95.8301 451.333,113.163 451.5,130.5C 443.833,130.5 436.167,130.5 428.5,130.5C 428.5,103.833 428.5,77.1667 428.5,50.5 Z"/></g>
<g><path style="opacity:0.944" fill="#1c1c1c" d="M 489.5,50.5 C 497.167,50.5 504.833,50.5 512.5,50.5C 512.5,77.1667 512.5,103.833 512.5,130.5C 504.833,130.5 497.167,130.5 489.5,130.5C 489.5,103.833 489.5,77.1667 489.5,50.5 Z"/></g>
<g><path style="opacity:1" fill="#fbfdfe" d="M 112.5,66.5 C 109.004,70.8187 106.004,75.4854 103.5,80.5C 97.3126,89.6875 90.9792,98.8542 84.5,108C 76.8881,107.446 70.3881,104.279 65,98.5C 64.5065,96.8659 64.3398,95.1992 64.5,93.5C 68.3118,89.2233 71.6452,84.5566 74.5,79.5C 75.1667,79.5 75.5,79.1667 75.5,78.5C 81.2808,69.7798 86.9474,60.9465 92.5,52C 100.112,52.5541 106.612,55.7208 112,61.5C 112.494,63.1341 112.66,64.8008 112.5,66.5 Z"/></g>
<g><path style="opacity:1" fill="#75c8af" d="M 73.5,58.5 C 74.1667,65.1667 74.8333,71.8333 75.5,78.5C 75.5,79.1667 75.1667,79.5 74.5,79.5C 73.5119,74.3595 73.1786,69.0262 73.5,63.5C 73.5,61.8333 73.5,60.1667 73.5,58.5 Z"/></g>
<g><path style="opacity:1" fill="#abdecf" d="M 73.5,63.5 C 73.1786,69.0262 73.5119,74.3595 74.5,79.5C 71.6452,84.5566 68.3118,89.2233 64.5,93.5C 64.8214,87.9738 64.4881,82.6405 63.5,77.5C 66.8456,72.7957 70.1789,68.129 73.5,63.5 Z"/></g>
<g><path style="opacity:1" fill="#added0" d="M 112.5,66.5 C 112.5,72.1667 112.5,77.8333 112.5,83.5C 109.996,88.5146 106.996,93.1813 103.5,97.5C 103.5,91.8333 103.5,86.1667 103.5,80.5C 106.004,75.4854 109.004,70.8187 112.5,66.5 Z"/></g>
<g><path style="opacity:1" fill="#fafdfd" d="M 103.5,97.5 C 106.996,93.1813 109.996,88.5146 112.5,83.5C 114.268,81.4922 115.934,79.3256 117.5,77C 122.74,76.6935 127.24,78.5269 131,82.5C 131.706,84.9712 131.373,87.3046 130,89.5C 125.833,95.6667 121.667,101.833 117.5,108C 111.971,108.822 107.471,106.989 104,102.5C 103.506,100.866 103.34,99.1992 103.5,97.5 Z"/></g>
</svg>
