<svg xmlns="http://www.w3.org/2000/svg" viewBox="0 0 549 855" fill="none"><path fill="#6E3215" fill-rule="evenodd" d="M388.074 24.28c-23.96-3.214-47.8-2.547-71.5 2-.765-.07-1.265-.402-1.5-1 6.09-20.646 19.92-28.646 41.5-24 14.47-.67 28.64.998 42.5 5 .54 2.024.04 4.024-1.5 6a158.695 158.695 0 0 0-9.5 12Z" clip-rule="evenodd" opacity=".954"/><path fill="#000" fill-rule="evenodd" d="M388.074 24.28h4a529.034 529.034 0 0 1 34 8c3.28 1.6 6.78 2.934 10.5 4 .76-.07 1.26-.402 1.5-1 46.29 20.129 79.46 53.462 99.5 100.001 6.75 16.845 10.25 34.345 10.5 52.5.51 35.789-4.99 70.622-16.5 104.5-4.67 12.667-9.33 25.333-14 38-15.75 34.414-41.58 57.58-77.5 69.5-24.76 7.928-50.1 10.595-76 8a534.845 534.845 0 0 1-44-5.5c-.577-2.152-1.744-2.485-3.5-1-2.906 4.538-4.406 9.205-4.5 14a55.218 55.218 0 0 0-3 12.5c3.171 3.475 6.004 7.308 8.5 11.5 1.943 6.611-.223 11.111-6.5 13.5a142.938 142.938 0 0 0-15 .5 55.582 55.582 0 0 1 1.5 9l1.5 1.5c2.982.498 5.982.665 9 .5.17 1.322-.163 2.489-1 3.5 1.399 1.062 2.399 2.395 3 4a2270.303 2270.303 0 0 0-19.5 40.5c-1.913 5.891-2.913 11.891-3 18 8.033 7.362 14.533 15.862 19.5 25.5 45.43 1.764 73.93 24.598 85.5 68.5 2.56 14.2 1.89 28.2-2 42-8.33 11.67-16.67 23.33-25 35a326.892 326.892 0 0 0-12 42c-6.53 20.35-20.36 28.52-41.5 24.5-3.381-.91-6.381-2.41-9-4.5-6.558-4.38-12.724-9.38-18.5-15a118.651 118.651 0 0 1-10-18c-2.582 1.73-4.082 4.06-4.5 7-2.88 2.54-6.213 4.21-10 5-1.175-.22-2.175.11-3 1a38.56 38.56 0 0 1 6 13c-.142 2.98.525 4.98 2 6 1.569 13.92 1.069 27.92-1.5 42-4.941 15.27-15.441 23.44-31.5 24.5-4.052 7.05-9.719 12.39-17 16-18.181 7.92-37.181 11.09-57 9.5-24.544.35-48.544-2.65-72-9-2.117-2.15-4.784-3.15-8-3a211.433 211.433 0 0 1-31-8 163.77 163.77 0 0 1-31-14.5c-15.004-13.38-19.504-29.88-13.5-49.5 4.01-11.86 7.51-23.86 10.5-36a156.69 156.69 0 0 0-5.5-24c-1.352-12.88-.352-25.55 3-38a188.444 188.444 0 0 0 11.5-30c-.52-16.12.48-32.118 3-48 5.23-19.072 14.897-35.572 29-49.5 14.868-6.567 23.368-18.067 25.5-34.5 3.286-8.424 8.786-14.924 16.5-19.5 17.366-10.001 36.033-13.334 56-10 25.805 2.461 50.805 8.294 75 17.5a55.811 55.811 0 0 0 6.5-8 273.623 273.623 0 0 0 15.5-38.5c-1.607-1.049-2.273-2.549-2-4.5 2.42-.208 4.753.126 7 1a49.618 49.618 0 0 0 11-9.5c-7.512-6.619-8.845-14.285-4-23a239.6 239.6 0 0 1 16-2.5c4.364-6.428 7.364-13.428 9-21-34.29-8.068-60.79-27.068-79.5-57-14.917-31.225-23.25-64.225-25-99a419.696 419.696 0 0 1 .5-42h6c3.076-73.707 37.076-127.54 102-161.5a235.497 235.497 0 0 1 25-7.5c.235.597.735.93 1.5 1 23.7-4.548 47.54-5.215 71.5-2Zm-73 17-1 2a1433.131 1433.131 0 0 1-31.5 36 459.204 459.204 0 0 0-37 35.001c-4.896 7.978-7.063 16.645-6.5 26 1.322.17 2.489-.163 3.5-1 .651-8.625 3.651-16.292 9-23a2600.388 2600.388 0 0 0 44.5-41 211.005 211.005 0 0 1-20.5 22 64.802 64.802 0 0 0-8 11c-.863 2.249-.363 4.082 1.5 5.5a68.9 68.9 0 0 0 14 2c-11.327 9.821-17.493 22.321-18.5 37.5a223.09 223.09 0 0 0-2 21 264.048 264.048 0 0 0-13.5 14 94.985 94.985 0 0 1 1.5-18 258.448 258.448 0 0 1 6.5-20c-1.478-.262-2.811.071-4 1-6.415 10.724-9.415 22.39-9 35a290.34 290.34 0 0 1 1 16c-10.464 13.513-13.797 28.513-10 45-2.343 9.617-2.343 19.283 0 29a103.41 103.41 0 0 0-3 16c1.175.219 2.175-.114 3-1a42.638 42.638 0 0 0 3.5-8 657.913 657.913 0 0 1 .5-32c3.262 2.425 4.762 5.758 4.5 10a384.155 384.155 0 0 0 0 29c2.498 6.646 5.998 12.646 10.5 18 2.372 7.445 3.372 15.112 3 23-1.533 9.06-5.199 17.06-11 24-22.341-18.233-36.841-41.566-43.5-70a483.152 483.152 0 0 1-11.5-62c2.642-32.9 10.475-64.567 23.5-95 17.37-33.702 42.536-59.87 75.5-78.5a157.752 157.752 0 0 1 25-8.5Zm-11 24c.073 1.528-.594 2.528-2 3-.073-1.526.594-2.526 2-3Zm-3 4c-.919 2.59-2.586 4.59-5 6 .919-2.588 2.586-4.588 5-6Zm-52 126.001c1.924.211 2.257.877 1 2l-1-2Zm46 200c-1.907 5.484-4.573 10.484-8 15a53.573 53.573 0 0 0 5.5-16c.671.752 1.504 1.086 2.5 1Zm-22 49h-3c.457-2.057 1.457-2.057 3 0Zm25 202c.227 7.73-1.107 15.06-4 22 .317-5.18-.349-10.18-2-15 2.029-2.36 4.029-4.69 6-7Zm-271 30c.166 8.34 0 16.67-.5 25-.28 2.96-1.113 5.62-2.5 8-3.927-11.44-2.927-22.44 3-33Zm305 74c.97.49 1.97.99 3 1.5-1.29 1.8-2.96 2.97-5 3.5.39-1.78 1.06-3.45 2-5Z" clip-rule="evenodd" opacity=".929"/><path fill="#6E3215" fill-rule="evenodd" d="M254.074 308.281c-4.502-5.354-8.002-11.354-10.5-18a384.155 384.155 0 0 1 0-29c.262-4.242-1.238-7.575-4.5-10a12.93 12.93 0 0 1 .5-5 331.732 331.732 0 0 0 7.5-15.5l-1-1.5a6385.764 6385.764 0 0 1-11 18c-3.797-16.487-.464-31.487 10-45 1.122 1.788 1.289 3.788.5 6a45.457 45.457 0 0 1-6.5 11c.502 1.021 1.168 1.188 2 .5 6.032-6.257 9.032-13.757 9-22.5 1.257-1.123.924-1.789-1-2v-7a264.048 264.048 0 0 1 13.5-14 223.09 223.09 0 0 1 2-21c1.007-15.179 7.173-27.679 18.5-37.5a68.9 68.9 0 0 1-14-2c-1.863-1.418-2.363-3.251-1.5-5.5a64.802 64.802 0 0 1 8-11 211.005 211.005 0 0 0 20.5-22c2.414-1.411 4.081-3.411 5-6 .667 0 1-.333 1-1 1.406-.473 2.073-1.473 2-3 .667 0 1-.333 1-1 .667 0 1-.333 1-1v-1c.667 0 1-.333 1-1 .667 0 1-.333 1-1v-1c.667 0 1-.333 1-1a99.567 99.567 0 0 1 10-16l-1.5-1a9.568 9.568 0 0 0-3 3c-.399-.228-.565-.562-.5-1l1-2c.111-.617.444-1.117 1-1.5a204.741 204.741 0 0 1 50-3c-31.72 22.933-55.22 52.433-70.5 88.5-14.388 32.776-20.888 67.109-19.5 103a2540.245 2540.245 0 0 0 7.5 103 339.941 339.941 0 0 1-.5 44c-11.098-2.09-21.264-6.423-30.5-13-.667-1-.667-2 0-3 10.399-17.332 12.399-35.665 6-55a351.14 351.14 0 0 0-10-23l-1-17c-1.962 3.347-2.796 7.014-2.5 11l.5 7 9.5 24.5c-.07.765-.403 1.265-1 1.5Z" clip-rule="evenodd" opacity=".986"/><path fill="#EFC494" fill-rule="evenodd" d="M490.074 89.28c-.42.625-1.08.958-2 1-12.01-.623-24.01-1.456-36-2.5a90.386 90.386 0 0 1-21-7 36.536 36.536 0 0 0-9.5-1.5 243.176 243.176 0 0 1-28.5 4c-3.8-.262-7.46-.93-11-2-.63 3.876 1.04 5.71 5 5.5 5.67.668 11.33.668 17 0a68.055 68.055 0 0 1 24-2 81.35 81.35 0 0 0 19 7 410.987 410.987 0 0 0 46 1.5c34.08 36.76 46.91 80.093 38.5 130.001-4.78 34.134-13.78 67.134-27 99-15.3 33.624-40.8 55.457-76.5 65.5-25.69 6.956-51.69 8.289-78 4a321.74 321.74 0 0 1-62-13.5v-7a551.356 551.356 0 0 0 3-62 275.697 275.697 0 0 0-1.5-32 718.453 718.453 0 0 1 3-101c10.692-50.631 34.86-93.464 72.5-128.5a76.711 76.711 0 0 1 14-9c44.17 1.324 81.17 18.158 111 50.5Z" clip-rule="evenodd"/><path fill="#000" fill-rule="evenodd" d="M309.074 58.28c-.667 0-1 .334-1 1v1c-.667 0-1 .334-1 1-.667 0-1 .334-1 1v1c-.667 0-1 .334-1 1-.667 0-1 .334-1 1-1.406.474-2.073 1.474-2 3-.667 0-1 .334-1 1-2.414 1.412-4.081 3.412-5 6a2600.388 2600.388 0 0 1-44.5 41.001c-5.349 6.708-8.349 14.375-9 23-1.011.837-2.178 1.17-3.5 1-.563-9.355 1.604-18.022 6.5-26a459.204 459.204 0 0 1 37-35 1433.131 1433.131 0 0 0 31.5-36c-.065.438.101.772.5 1a9.568 9.568 0 0 1 3-3l1.5 1a99.567 99.567 0 0 0-10 16Z" clip-rule="evenodd" opacity=".642"/><path fill="#EFC494" fill-rule="evenodd" d="M440.074 117.281c5.23-.056 10.23.611 15 2-5.25.198-10.25-.469-15-2ZM434.074 122.281c2.65-.09 4.99.576 7 2-2.65.09-4.99-.576-7-2ZM486.074 123.281c6.21.023 12.21.69 18 2-6.23.112-12.23-.554-18-2Z" clip-rule="evenodd"/><path fill="#000" fill-rule="evenodd" d="M410.074 150.281c-4.07 1.554-8.4 2.22-13 2 4.07-1.554 8.4-2.22 13-2Z" clip-rule="evenodd"/><path fill="#000" fill-rule="evenodd" d="M410.074 150.281c38.03-.643 72.36 10.19 103 32.5 5.91 5.322 9.57 11.822 11 19.5h-4c-5.22-7.715-11.88-13.882-20-18.5-29.64-16.194-61.31-23.194-95-21-23.53 3.604-45.2 11.937-65 25-8.62 7.61-16.12 16.11-22.5 25.5a145.522 145.522 0 0 0-6 15 628.619 628.619 0 0 0-6 52 261.306 261.306 0 0 1-7.5 21c-1.818 1.578-2.818 1.078-3-1.5a248.898 248.898 0 0 0 4.5-18.5 924.44 924.44 0 0 1 1.5-42c1.472-4.419 2.138-9.086 2-14 1.404-7.04 3.904-13.707 7.5-20 15.92-24.56 38.08-40.726 66.5-48.5a358.81 358.81 0 0 1 20-4.5c4.6.22 8.93-.446 13-2Z" clip-rule="evenodd"/><path fill="#6E3215" fill-rule="evenodd" d="M520.074 202.281a636.371 636.371 0 0 0-8 10c-9.18-9.093-19.84-15.926-32-20.5-1.89-.78-3.55-.613-5 .5-8.98-5.049-18.65-8.215-29-9.5-73.38-5.321-114.38 28.513-123 101.5a135.518 135.518 0 0 0-9 20c.172.992-.162 1.658-1 2-5.375-.311-10.375-1.977-15-5a261.306 261.306 0 0 0 7.5-21 628.619 628.619 0 0 1 6-52 145.522 145.522 0 0 1 6-15c6.38-9.39 13.88-17.89 22.5-25.5 19.8-13.063 41.47-21.396 65-25 33.69-2.194 65.36 4.806 95 21 8.12 4.618 14.78 10.785 20 18.5Z" clip-rule="evenodd"/><path fill="#000" fill-rule="evenodd" d="M475.074 192.281c11.88 6.548 21.55 15.548 29 27-2.02.541-4.02.041-6-1.5-14.31-15.491-31.98-23.991-53-25.5-2.98-.665-6.15-.998-9.5-1-8.83.831-17.66 1.665-26.5 2.5-26.86 4.238-46.86 18.071-60 41.5-8.5 12.992-13.33 27.325-14.5 43-3.35 13.869-10.18 25.702-20.5 35.5-2.107.854-3.441.188-4-2 .624-2.085 1.624-3.918 3-5.5.838-.342 1.172-1.008 1-2 4.605-5.883 7.605-12.549 9-20 8.62-72.987 49.62-106.821 123-101.5 10.35 1.285 20.02 4.451 29 9.5Z" clip-rule="evenodd"/><path fill="#6E3215" fill-rule="evenodd" d="M445.074 192.281c-9.11-.368-18.11.465-27 2.5a453.162 453.162 0 0 0-39 14 131.744 131.744 0 0 0-16 11 314.987 314.987 0 0 1-14 15.5c13.14-23.429 33.14-37.262 60-41.5 8.84-.835 17.67-1.669 26.5-2.5 3.35.002 6.52.335 9.5 1Z" clip-rule="evenodd"/><path fill="#000" fill-rule="evenodd" d="M511.074 278.281c-.33 2.775-1.67 3.441-4 2-8.03-23.368-24.03-38.035-48-44-.42-.722-1.08-1.222-2-1.5a60.931 60.931 0 0 0-11-.5h-14c-3.33-.285-6.33.382-9 2-17.55 3.441-32.88 11.107-46 23-4.27 2.601-7.94 5.934-11 10a123.91 123.91 0 0 0-11 15 34.237 34.237 0 0 1-4.5 6c-.67-2-.67-4 0-6 15.29-31.571 40.12-51.071 74.5-58.5 26.64-4.416 49.97 2.251 70 20a133.553 133.553 0 0 1 13.5 20.5c1.03 3.973 1.86 7.973 2.5 12Z" clip-rule="evenodd"/><path fill="#E9E9E9" fill-rule="evenodd" d="M432.074 234.281h14c4.16.949 8.49 1.616 13 2 23.97 5.965 39.97 20.632 48 44 2.33 1.441 3.67.775 4-2 .87 2.827.87 5.827 0 9a101.988 101.988 0 0 1-30 17h-29c9.23-10.693 12.06-23.026 8.5-37-5.3-11.804-14.13-19.471-26.5-23-3.2-1.53-6.7-2.196-10.5-2-4.94-.39-9.44.61-13.5 3-13.95 5.206-23.12 14.873-27.5 29a98.83 98.83 0 0 0 .5 23 115.53 115.53 0 0 1-18-6.5c-3.91-1.444-7.24-3.611-10-6.5a123.91 123.91 0 0 1 11-15c4.27-2.601 7.94-5.934 11-10 13.12-11.893 28.45-19.559 46-23 3.23-.176 6.23-.843 9-2Z" clip-rule="evenodd"/><path fill="#000" fill-rule="evenodd" d="M446.074 234.281c3.68-.165 7.35.001 11 .5.92.278 1.58.778 2 1.5-4.51-.384-8.84-1.051-13-2ZM432.074 234.281c-2.77 1.157-5.77 1.824-9 2 2.67-1.618 5.67-2.285 9-2Z" clip-rule="evenodd"/><path fill="#E81604" fill-rule="evenodd" d="M434.074 244.281c12.37 3.529 21.2 11.196 26.5 23 3.56 13.974.73 26.307-8.5 37h-4c14.21-20.693 11.54-38.86-8-54.5-14.67-5.983-28.34-4.316-41 5-13.67 10.85-18.01 24.684-13 41.5-.34.838-1.01 1.172-2 1h-1a98.83 98.83 0 0 1-.5-23c4.38-14.127 13.55-23.794 27.5-29 7.91-2.214 15.91-2.548 24-1Z" clip-rule="evenodd"/><path fill="#E81604" fill-rule="evenodd" d="M434.074 244.281c-8.09-1.548-16.09-1.214-24 1 4.06-2.39 8.56-3.39 13.5-3 3.8-.196 7.3.47 10.5 2Z" clip-rule="evenodd"/><path fill="#000" fill-rule="evenodd" d="M448.074 304.281c-2.09 1.439-4.42 2.106-7 2v-3c4.35-4.026 7.19-9.026 8.5-15 2.11-14.898-3.39-26.065-16.5-33.5-15.51-2.99-28.34 1.51-38.5 13.5-6.16 9.586-6.99 19.586-2.5 30 1.37 1.642 1.7 3.308 1 5-2.71-2.048-5.05-4.382-7-7-5.01-16.816-.67-30.65 13-41.5 12.66-9.316 26.33-10.983 41-5 19.54 15.64 22.21 33.807 8 54.5Z" clip-rule="evenodd"/><path fill="#EFC494" fill-rule="evenodd" d="M377.074 259.281c-3.06 4.066-6.73 7.399-11 10 3.06-4.066 6.73-7.399 11-10Z" clip-rule="evenodd"/><path fill="#000" fill-rule="evenodd" d="M511.074 287.281c1.07.751 1.24 1.751.5 3-11.73 13.784-26.56 22.284-44.5 25.5-29.55 4.507-58.55 2.674-87-5.5-2.01-1.424-4.35-2.09-7-2-7.02-1.115-13.35-3.782-19-8-.93-1.189-1.26-2.522-1-4a364.824 364.824 0 0 0 33 8c21.5 5.085 43.17 7.085 65 6 7.03-.507 14.03-1.34 21-2.5 3.1-1.228 6.1-2.394 9-3.5a101.988 101.988 0 0 0 30-17Z" clip-rule="evenodd"/><path fill="#EFC494" fill-rule="evenodd" d="M323.074 284.281c-1.395 7.451-4.395 14.117-9 20a135.518 135.518 0 0 1 9-20Z" clip-rule="evenodd"/><path fill="#E81604" fill-rule="evenodd" d="M386.074 296.281c1.95 2.618 4.29 4.952 7 7 .7-1.692.37-3.358-1-5a239.513 239.513 0 0 0 49 5v3c2.58.106 4.91-.561 7-2h2c-2.3 2.824-5.3 4.657-9 5.5 3.32.498 6.65.665 10 .5-21.83 1.085-43.5-.915-65-6a29.278 29.278 0 0 0-2-7c.99.172 1.66-.162 2-1Z" clip-rule="evenodd"/><path fill="#EFC494" fill-rule="evenodd" d="M450.074 304.281h31c-2.9 1.106-5.9 2.272-9 3.5a227.552 227.552 0 0 1-21 2.5c-3.35.165-6.68-.002-10-.5 3.7-.843 6.7-2.676 9-5.5ZM373.074 308.281c2.65-.09 4.99.576 7 2-2.65.09-4.99-.576-7-2Z" clip-rule="evenodd"/><path fill="#6E3215" fill-rule="evenodd" d="M257.074 331.281c1.138 2.804 1.305 5.804.5 9-2.228 6.786-5.228 13.119-9 19-1.595-.856-2.428-2.189-2.5-4 5.801-6.94 9.467-14.94 11-24Z" clip-rule="evenodd" opacity=".745"/><path fill="#000" fill-rule="evenodd" d="M288.074 371.281v7c-.997.03-1.664-.47-2-1.5.454-2.03 1.12-3.863 2-5.5Z" clip-rule="evenodd"/><path fill="#E9E9E9" fill-rule="evenodd" d="M295.074 395.281a392.653 392.653 0 0 1 19 4.5 28.415 28.415 0 0 0-4.5 7.5 186.118 186.118 0 0 0-5.5 18 83.745 83.745 0 0 0-19-8c-.886-.825-1.219-1.825-1-3 .667 0 1-.333 1-1 .838-.342 1.172-1.008 1-2 .667 0 1-.333 1-1 3.427-4.516 6.093-9.516 8-15Z" clip-rule="evenodd" opacity=".973"/><path fill="#E9E9E9" fill-rule="evenodd" d="m320.074 402.281-8 13c.094-4.795 1.594-9.462 4.5-14 1.756-1.485 2.923-1.152 3.5 1Z" clip-rule="evenodd" opacity=".686"/><path fill="#E9E9E9" fill-rule="evenodd" d="M270.074 444.281h3c1.068.934 2.401 1.268 4 1 3.501 1.3 7.167 2.466 11 3.5 1.314.985 2.314 2.152 3 3.5l3 12c-11.971-1.16-23.305-4.493-34-10 1.396-4.733 4.729-8.067 10-10Z" clip-rule="evenodd" opacity=".955"/><path fill="#E9E9E9" fill-rule="evenodd" d="M283.074 467.281c.774-.647 1.774-.98 3-1l9 1.5c-4.037.607-8.037.44-12-.5Z" clip-rule="evenodd"/><path fill="#EFC494" fill-rule="evenodd" d="M303.074 602.281c-.617.111-1.117.444-1.5 1a90.094 90.094 0 0 0-1.5 16c-1.702 7.41-4.535 14.41-8.5 21-1.566 2.49-3.566 4.49-6 6a109.468 109.468 0 0 0-18.5-12.5 1221.248 1221.248 0 0 0-84-41l-25-15a63.726 63.726 0 0 1-10-9c-.983-.591-1.65-.257-2 1a51.773 51.773 0 0 0 8 11 350.672 350.672 0 0 0 47 31 729.922 729.922 0 0 1 71 39c3.592 2.92 6.425 6.42 8.5 10.5 1.414 21.35-3.586 41.01-15 59-5.084 7.79-12.25 11.12-21.5 10a174.536 174.536 0 0 1-36-4.5c-27.103-10.22-52.437-23.55-76-40-8.522-5.69-15.522-12.86-21-21.5-1.151-1.23-2.317-1.23-3.5 0-.667 1.67-.667 3.33 0 5 5.405 9.97 12.571 18.47 21.5 25.5 21.69 16.19 45.023 29.86 70 41a114.077 114.077 0 0 0 27 6.5 75.846 75.846 0 0 0 25 1c1.322-.17 2.489.16 3.5 1a63.495 63.495 0 0 1 4 15c.528 11.39-.139 22.73-2 34-2.094 13.76-9.927 21.93-23.5 24.5-27.241.4-53.241-5.27-78-17a1348.1 1348.1 0 0 0-62-31c-4-2.67-8-5.33-12-8a8.394 8.394 0 0 0-4-.5 8.43 8.43 0 0 0 .5 4 121.242 121.242 0 0 0 20.5 16.5c19.333 10.33 38.667 20.67 58 31 19.374 8.96 39.707 14.12 61 15.5 2.333.67 4.667 1.33 7 2-5.501 4.57-11.834 7.74-19 9.5-16.677 4.89-33.677 6.56-51 5a455.792 455.792 0 0 1-92-19c-16.087-4.62-30.253-12.45-42.5-23.5-2.938-4.17-4.438-8.84-4.5-14 .95-1.42 1.284-3.09 1-5 .95-1.42 1.284-3.09 1-5 .74-4.88 1.575-9.88 2.5-15a193.317 193.317 0 0 0 7-21c.667-6 .667-12 0-18a51.66 51.66 0 0 1-2.5-15c1.387-2.38 2.22-5.04 2.5-8 .5-8.33.666-16.66.5-25-.16-1.7.006-3.37.5-5a152.54 152.54 0 0 0 8-22 582.667 582.667 0 0 1 3-50c4.889-16.953 13.723-31.453 26.5-43.5 11.546-4.58 19.379-12.747 23.5-24.5a58.295 58.295 0 0 1 8-21c10.946-10.208 23.946-15.541 39-16 41.021 3.047 80.188 13.214 117.5 30.5 18.229 7.896 32.396 20.396 42.5 37.5 6.671 12.522 9.171 25.856 7.5 40Z" clip-rule="evenodd" opacity=".999"/><path fill="#000" fill-rule="evenodd" d="M121.074 511.281c1.528.017 2.028.684 1.5 2a103.874 103.874 0 0 0-14.5 23l-1-1c3.137-8.948 7.804-16.948 14-24Z" clip-rule="evenodd"/><path fill="#EFC494" fill-rule="evenodd" d="M364.074 680.281c-21.83-16.15-42.164-14.49-61 5-3.971 2.22-6.804 5.55-8.5 10-2.87 7.08-3.87 14.41-3 22 .21-1.56.71-2.89 1.5-4-.266 4.1.234 8.1 1.5 12 10.135 10.32 21.968 17.98 35.5 23 1 .33 1.67 1 2 2-.94 1.55-1.61 3.22-2 5-.67 0-1 .33-1 1-1.18 1-2.52 1.84-4 2.5-14.632.28-27.132-4.89-37.5-15.5a113.89 113.89 0 0 1-10-15c-.667-1-.667-2 0-3 11.239-17.28 16.739-36.28 16.5-57 2.893-6.94 4.227-14.27 4-22-1.971 2.31-3.971 4.64-6 7-1.528-.02-2.028-.68-1.5-2 12.631-11.59 20.297-25.92 23-43 1.251-13.842.418-27.509-2.5-41 .904-.709 1.237-1.709 1-3 27.67 3.798 48.17 18.131 61.5 43 6.9 15.37 9.23 31.37 7 48-4.15 9.3-9.65 17.63-16.5 25Z" clip-rule="evenodd" opacity=".997"/><path fill="#000" fill-rule="evenodd" d="M81.074 572.281c1.175-.219 2.175.114 3 1-5.974 5.279-10.474 11.612-13.5 19a159.246 159.246 0 0 0-6.5 27c-2.041-18.55 3.625-34.216 17-47Z" clip-rule="evenodd"/><path fill="#EFC494" fill-rule="evenodd" d="M25.074 594.281a253.447 253.447 0 0 0-3 48c-.802-1.45-1.302-3.12-1.5-5-.667-9.67-.667-19.33 0-29 .43-5.12 1.93-9.787 4.5-14Z" clip-rule="evenodd" opacity=".67"/><path fill="#EFC494" fill-rule="evenodd" d="M303.074 602.281c.503 6.061-.497 11.727-3 17a90.094 90.094 0 0 1 1.5-16c.383-.556.883-.889 1.5-1Z" clip-rule="evenodd"/><path fill="#000" fill-rule="evenodd" d="M364.074 680.281a22.591 22.591 0 0 0-3 4c-.19-3.19-1.85-5.19-5-6-3.21-2.36-6.88-3.86-11-4.5-6.33-.67-12.67-.67-19 0-.92.28-1.58.78-2 1.5-18.234 7.74-27.568 21.74-28 42 1.153 5.67 4.153 10.17 9 13.5a114.571 114.571 0 0 0 25 14.5v3c-13.532-5.02-25.365-12.68-35.5-23a31.844 31.844 0 0 1-1.5-12c.774-10.33 4.108-19.66 10-28 18.836-19.49 39.17-21.15 61-5Z" clip-rule="evenodd"/><path fill="#EFC494" fill-rule="evenodd" d="M356.074 678.281c-10.45-2.73-21.12-3.73-32-3 .42-.72 1.08-1.22 2-1.5 6.33-.67 12.67-.67 19 0 4.12.64 7.79 2.14 11 4.5Z" clip-rule="evenodd"/><path fill="#E9E9E9" fill-rule="evenodd" d="M324.074 675.281c10.88-.73 21.55.27 32 3 3.15.81 4.81 2.81 5 6-4.01 4.68-7.01 10.02-9 16-2.55 4.07-5.39 8.07-8.5 12a573.166 573.166 0 0 1-10 32c-1.01.84-2.18 1.17-3.5 1a114.571 114.571 0 0 1-25-14.5c-4.847-3.33-7.847-7.83-9-13.5.432-20.26 9.766-34.26 28-42Z" clip-rule="evenodd"/><path fill="#000" fill-rule="evenodd" d="M45.074 699.281c-.973-2.45-1.306-5.11-1-8-.316-6.23 1.017-12.07 4-17.5.832-.69 1.498-.52 2 .5a23.815 23.815 0 0 0-2.5 6c-.862 6.48-1.695 12.81-2.5 19Z" clip-rule="evenodd"/><path fill="#000" fill-rule="evenodd" d="M44.074 691.281c-.306 2.89.027 5.55 1 8-.06.54-.393.88-1 1-1.303-3.14-1.303-6.14 0-9Z" clip-rule="evenodd"/><path fill="#E9E9E9" fill-rule="evenodd" d="M303.074 685.281c-5.892 8.34-9.226 17.67-10 28-.79 1.11-1.29 2.44-1.5 4-.87-7.59.13-14.92 3-22 1.696-4.45 4.529-7.78 8.5-10ZM352.074 700.281c-3.95 15.68-8.12 31.35-12.5 47-.31.81-.81 1.47-1.5 2-2.69-1.01-5.35-2.01-8-3v-1c1.32.17 2.49-.16 3.5-1 3.64-10.55 6.97-21.21 10-32 3.11-3.93 5.95-7.93 8.5-12Z" clip-rule="evenodd"/><path fill="#EFC494" fill-rule="evenodd" d="M303.074 763.281c-6.221-.61-11.554-3.11-16-7.5-6.922-5.09-12.588-11.25-17-18.5.418-2.94 1.918-5.27 4.5-7a118.651 118.651 0 0 0 10 18c5.776 5.62 11.942 10.62 18.5 15Z" clip-rule="evenodd" opacity=".829"/><path fill="#000" fill-rule="evenodd" d="M226.074 742.281c8.348.04 16.681.38 25 1a75.846 75.846 0 0 1-25-1Z" clip-rule="evenodd"/><path fill="#EFC494" fill-rule="evenodd" d="M260.074 742.281c3.363 5.11 5.029 10.77 5 17l-2-3a38.56 38.56 0 0 0-6-13c.825-.89 1.825-1.22 3-1Z" clip-rule="evenodd" opacity=".64"/><path fill="#000" fill-rule="evenodd" d="m263.074 756.281 2 3v3c-1.475-1.02-2.142-3.02-2-6ZM38.074 768.281c1.149.29 1.816 1.12 2 2.5a199.832 199.832 0 0 0-3.5 23.5c-.414.46-.914.79-1.5 1l-1-3c.949-8.08 2.282-16.08 4-24Z" clip-rule="evenodd"/><path fill="#EFC494" fill-rule="evenodd" d="M217.074 828.281a16.91 16.91 0 0 1 8 1c-.124.61-.457.94-1 1-2.333-.67-4.667-1.33-7-2Z" clip-rule="evenodd"/><path fill="#EFC494" fill-rule="evenodd" d="M47.074 834.281a211.433 211.433 0 0 0 31 8c1 .67 2 1.33 3 2-12.192-.73-23.525-4.07-34-10Z" clip-rule="evenodd" opacity=".561"/><path fill="#EFC494" fill-rule="evenodd" d="M78.074 842.281c3.216-.15 5.883.85 8 3-1.915.28-3.581-.05-5-1-1-.67-2-1.33-3-2Z" clip-rule="evenodd"/></svg>