<svg xmlns="http://www.w3.org/2000/svg" fill="none" viewBox="0 0 265 22" height="22" width="265">
<path fill="#080808" d="M80.7756 6.0259C80.7756 2.92122 78.8145 0.547119 74.4992 0.547119H62.5353V20.4518H68.6158V11.687H72.7351L78.8156 20.4518H82.5421L76.4616 11.5036C79.0115 10.9554 80.7768 8.76475 80.7768 6.02482L80.7756 6.0259ZM68.6158 9.13057V2.92122H74.1075C76.2645 2.92122 77.638 4.2 77.638 6.0259C77.638 8.03417 76.0686 9.13057 74.5004 9.13057H68.6158Z"></path>
<path fill="#080808" d="M35.4685 0.548218L25.4657 20.4529H29.1921L32.5268 13.514H41.9408L45.0784 20.4529H50.963L41.9408 0.548218H35.4685ZM33.7032 10.9565L37.4297 3.28707L40.9602 10.9565H33.7032Z"></path>
<path fill="#080808" d="M12.913 0.548218H0.751953V20.4529H6.83246V11.6881H13.5006C15.2659 11.6881 18.9923 10.227 18.9923 6.027C18.9923 2.92232 17.0312 0.548218 12.9118 0.548218H12.913ZM12.7159 9.13059H6.8313V2.92124H12.323C14.48 2.92124 15.8535 4.20002 15.8535 6.02592C15.8535 8.03419 14.2841 9.13059 12.7159 9.13059Z"></path>
<path fill="#080808" d="M204.931 12.4176C204.931 14.7917 204.146 17.713 200.028 17.713C195.91 17.713 195.321 14.6083 195.321 12.4176V0.548218H189.437V8.94822C189.437 14.6094 189.828 20.8176 200.028 20.8176C206.305 20.8176 208.462 17.1658 208.462 12.0529V0.548218H204.931V12.4176Z"></path>
<path fill="#080808" d="M219.249 3.10469H224.937V20.4518H231.017V3.10469H236.705V0.548218H219.249V3.10469Z"></path>
<path fill="#080808" d="M101.174 0.548218L91.1714 20.4529H94.8978L98.2325 13.514H107.646L110.784 20.4529H117.06L107.842 0.548218H101.174ZM99.4089 10.9565L103.135 3.28707L106.666 10.9565H99.4089Z"></path>
<path fill="#080808" d="M264.752 3.10469V0.548218H247.492V20.4518H264.752V17.8953H253.573V11.5047H263.184V8.94822H253.573V3.10469H264.752Z"></path>
<path fill="#080808" d="M172.96 8.94822H162.957V0.548218H156.877V20.4518H162.957V11.5047H172.96V20.4518H176.491V0.548218H172.96V8.94822Z"></path>
<path fill="#080808" d="M138.048 18.2612C135.106 18.2612 132.163 15.34 132.163 10.4094C132.163 5.47882 134.713 2.55759 138.048 2.55759C140.402 2.55759 141.97 3.10579 143.539 4.74932L145.109 2.74105C143.539 1.09752 141.186 0.00219727 138.048 0.00219727C130.006 0.00219727 125.299 4.93277 125.299 10.4105C125.299 16.8022 130.595 21.0022 138.048 21.0022C141.185 21.0022 143.932 19.3587 145.305 17.8975L143.539 16.254C141.382 17.8975 139.617 18.2623 138.048 18.2623V18.2612Z"></path>
</svg>
