<?xml version="1.0" standalone="no"?>
<!DOCTYPE svg PUBLIC "-//W3C//DTD SVG 20010904//EN"
 "http://www.w3.org/TR/2001/REC-SVG-20010904/DTD/svg10.dtd">
<svg version="1.0" xmlns="http://www.w3.org/2000/svg"
 width="260.000000pt" height="260.000000pt" viewBox="0 0 260.000000 260.000000"
 preserveAspectRatio="xMidYMid meet">
<metadata>
Created by potrace 1.14, written by Peter Selinger 2001-2017
</metadata>
<g transform="translate(0.000000,260.000000) scale(0.100000,-0.100000)"
fill="#000000" stroke="none">
<path d="M1120 2595 c-8 -2 -49 -9 -90 -15 -104 -17 -249 -65 -350 -115 -327
-165 -536 -444 -621 -829 -26 -116 -37 -429 -20 -561 65 -495 332 -846 754
-994 158 -55 262 -72 479 -78 356 -10 600 44 843 185 110 65 274 229 334 335
48 86 98 219 107 291 l7 46 -417 0 -416 0 -10 -25 c-5 -14 -30 -47 -55 -74
-134 -143 -417 -161 -587 -36 -88 65 -148 188 -148 305 l0 60 816 0 816 0 -5
243 c-4 215 -7 254 -30 347 -115 480 -422 786 -892 892 -70 16 -135 21 -295
23 -113 2 -212 2 -220 0z m302 -646 c156 -33 281 -158 295 -294 l6 -55 -398 0
-398 0 6 49 c24 205 259 349 489 300z"/>
</g>
</svg>
