<svg xmlns="http://www.w3.org/2000/svg" version="1.1" xmlns:xlink="http://www.w3.org/1999/xlink" width="1000" height="1000"><style>
    #light-icon {
      display: inline;
    }
    #dark-icon {
      display: none;
    }

    @media (prefers-color-scheme: dark) {
      #light-icon {
        display: none;
      }
      #dark-icon {
        display: inline;
      }
    }
  </style><g id="light-icon"><svg xmlns="http://www.w3.org/2000/svg" version="1.1" xmlns:xlink="http://www.w3.org/1999/xlink" width="1000" height="1000"><g clip-path="url(#SvgjsClipPath1091)"><rect width="1000" height="1000" fill="#ffffff"></rect><g transform="matrix(4.830917874396135,0,0,4.830917874396135,0,99.03381642512079)"><svg xmlns="http://www.w3.org/2000/svg" version="1.1" xmlns:xlink="http://www.w3.org/1999/xlink" width="207" height="166"><svg width="207" height="166" viewBox="0 0 207 166" fill="none" xmlns="http://www.w3.org/2000/svg">
<path opacity="0.775" fill-rule="evenodd" clip-rule="evenodd" d="M77 0.667315C94.15 -2.34169 103.15 4.82532 104 22.1673C102.48 40.7363 97.31 58.2363 88.5 74.6673C79.59 90.8253 69.42 106.159 58 120.667C68.24 136.878 83.07 145.211 102.5 145.667C121.59 143.748 139.76 138.581 157 130.167C171.43 122.449 185.76 114.449 200 106.167C205.58 104.906 207.41 107.073 205.5 112.667C185.03 128.324 162.53 140.491 138 149.167C116.59 156.325 95.26 156.325 74 149.167C64.59 144.082 56.75 137.248 50.5 128.667C41.27 139.193 31.108 148.693 20 157.167C15.659 160.339 10.992 163.006 6 165.167C4 165.834 2 165.834 0 165.167C17.148 151.852 32.481 136.686 46 119.667C42.52 112.389 40.35 104.722 39.5 96.6673C36.05 69.2323 41.05 43.5653 54.5 19.6673C60.38 11.2763 67.88 4.94331 77 0.667315ZM85 7.66731C91.24 8.07331 94.74 11.4073 95.5 17.6673C96.32 25.5573 95.32 33.2233 92.5 40.6673C83.11 66.1323 70.11 89.4653 53.5 110.667C44.41 81.9523 47.07 54.2863 61.5 27.6673C67.1 18.2193 74.94 11.5523 85 7.66731Z" fill="black"></path>
</svg></svg></g></g><defs><clipPath id="SvgjsClipPath1091"><rect width="1000" height="1000" x="0" y="0" rx="150" ry="150"></rect></clipPath></defs></svg></g><g id="dark-icon"><svg xmlns="http://www.w3.org/2000/svg" version="1.1" xmlns:xlink="http://www.w3.org/1999/xlink" width="1000" height="1000"><g><g transform="matrix(4.830917874396135,0,0,4.830917874396135,0,99.03381642512079)" style="filter: invert(100%)"><svg xmlns="http://www.w3.org/2000/svg" version="1.1" xmlns:xlink="http://www.w3.org/1999/xlink" width="207" height="166"><svg width="207" height="166" viewBox="0 0 207 166" fill="none" xmlns="http://www.w3.org/2000/svg">
<path opacity="0.775" fill-rule="evenodd" clip-rule="evenodd" d="M77 0.667315C94.15 -2.34169 103.15 4.82532 104 22.1673C102.48 40.7363 97.31 58.2363 88.5 74.6673C79.59 90.8253 69.42 106.159 58 120.667C68.24 136.878 83.07 145.211 102.5 145.667C121.59 143.748 139.76 138.581 157 130.167C171.43 122.449 185.76 114.449 200 106.167C205.58 104.906 207.41 107.073 205.5 112.667C185.03 128.324 162.53 140.491 138 149.167C116.59 156.325 95.26 156.325 74 149.167C64.59 144.082 56.75 137.248 50.5 128.667C41.27 139.193 31.108 148.693 20 157.167C15.659 160.339 10.992 163.006 6 165.167C4 165.834 2 165.834 0 165.167C17.148 151.852 32.481 136.686 46 119.667C42.52 112.389 40.35 104.722 39.5 96.6673C36.05 69.2323 41.05 43.5653 54.5 19.6673C60.38 11.2763 67.88 4.94331 77 0.667315ZM85 7.66731C91.24 8.07331 94.74 11.4073 95.5 17.6673C96.32 25.5573 95.32 33.2233 92.5 40.6673C83.11 66.1323 70.11 89.4653 53.5 110.667C44.41 81.9523 47.07 54.2863 61.5 27.6673C67.1 18.2193 74.94 11.5523 85 7.66731Z" fill="black"></path>
</svg></svg></g></g></svg></g></svg>