<?xml version="1.0" standalone="no"?>
<!DOCTYPE svg PUBLIC "-//W3C//DTD SVG 20010904//EN"
 "http://www.w3.org/TR/2001/REC-SVG-20010904/DTD/svg10.dtd">
<svg version="1.0" xmlns="http://www.w3.org/2000/svg"
 width="259.000000pt" height="259.000000pt" viewBox="0 0 259.000000 259.000000"
 preserveAspectRatio="xMidYMid meet">
<metadata>
Created by potrace 1.14, written by Peter Selinger 2001-2017
</metadata>
<g transform="translate(0.000000,259.000000) scale(0.100000,-0.100000)"
fill="#000000" stroke="none">
<path d="M1159 2586 c-2 -2 -29 -7 -59 -10 -187 -22 -407 -123 -565 -259 -225
-194 -374 -451 -432 -745 -18 -95 -24 -373 -10 -472 71 -480 401 -900 819
-1044 146 -50 189 -55 408 -52 113 1 214 5 225 8 11 3 43 12 70 19 28 7 69 20
93 30 23 10 42 16 42 14 0 -2 41 16 90 41 183 93 346 241 433 396 26 45 45 83
44 84 -1 2 -35 11 -74 22 l-72 19 -42 -71 c-82 -139 -254 -282 -426 -355 -133
-57 -232 -76 -393 -76 -130 0 -186 8 -292 41 -320 100 -593 383 -707 732 -26
78 -61 248 -61 292 0 16 74 17 1115 18 613 0 1120 4 1126 8 11 6 7 206 -6 279
-74 421 -310 757 -670 955 -78 43 -216 94 -285 105 -25 4 -54 9 -65 12 -26 6
-300 15 -306 9z m306 -157 c348 -57 642 -311 786 -679 38 -96 67 -214 75 -305
3 -27 7 -58 9 -67 3 -16 -6 -18 -68 -18 -121 -1 -1981 -1 -2004 -1 -24 1 -24
-4 3 162 79 489 457 874 899 916 33 3 61 7 63 8 6 5 173 -6 237 -16z"/>
</g>
</svg>
